<svg width="600" height="136" viewBox="0 0 600 136" fill="none" xmlns="http://www.w3.org/2000/svg">
<path d="M0 135.4H519.4V121.8H0V135.4Z" fill="#159E49"/>
<path d="M555.4 135.4H600V121.8H555.4V135.4Z" fill="#159E49"/>
<path d="M101.2 101.2H119.8V31.2H101.2V101.2ZM99.4 11C99.4 7.8 100.4 5.2 102.6 3C104.6 1 107.4 0 110.6 0C114 0 116.6 1 118.6 3C120.6 5 121.8 7.6 121.8 11C121.8 14.2 120.8 16.8 118.6 19C116.6 21 113.8 22 110.6 22C107.4 22 104.8 21 102.6 19C100.4 17 99.4 14.2 99.4 11Z" fill="#333433"/>
<path d="M162.6 31H181.6V45H162.6V78.6C162.6 81.6 163.4 84 165.2 85.8C167 87.6 169.2 88.6 172.2 88.6C174.8 88.6 177.8 88.2 181 87.4L183.4 101.2C178 102.6 172.8 103.4 167.8 103.4C164.4 103.4 161.2 102.8 158.4 101.8C155.6 100.8 153.2 99.2 151 97.2C149 95.2 147.4 92.8 146.2 90C145 87.2 144.6 84.2 144.6 80.8V45.4H131.8V31.4H144.6V10.8H162.4V31H162.6Z" fill="#333433"/>
<path d="M192.6 50.4C192.6 47.4 193.2 44.4 194.6 41.8C196 39.2 197.8 37 200 35C202.4 33.2 205.2 31.6 208.4 30.6C211.6 29.6 215.4 29 219.2 29C223.2 29 227.4 29.4 231.6 30.2C235.8 31 240.2 32.2 244.6 33.8L240.6 47C237.2 45.6 233.8 44.6 230.4 43.8C227 43 223.8 42.6 220.8 42.6C217.6 42.6 215 43.2 213 44.6C211 46 210.2 47.8 210.2 50.2C210.2 52.4 211.2 54 213 55C214.8 56 217 57 219.8 57.8C222.6 58.6 225.4 59.4 228.6 60C231.8 60.8 234.8 62 237.4 63.6C240.2 65.2 242.4 67.4 244.2 70C246 72.8 247 76.4 247 80.8C247 84 246.4 86.8 245 89.6C243.6 92.2 241.8 94.6 239.4 96.6C237 98.6 234.2 100 230.6 101.2C227.2 102.2 223.4 102.8 219.4 102.8C210.8 102.8 201.6 101 192 97.2L195.8 84.2C204 87.6 211.4 89.2 218 89.2C221.4 89.2 224.2 88.4 226.2 87C228.2 85.6 229.2 83.6 229.2 81C229.2 78.8 228.2 77.2 226.4 76C224.6 74.8 222.4 73.8 219.6 73C216.8 72.2 214 71.4 210.8 70.6C207.6 69.8 204.8 68.6 202 67C199.2 65.4 197 63.4 195.2 60.8C193.4 58.4 192.6 54.8 192.6 50.4Z" fill="#333433"/>
<path d="M284.4 31H303.4V45H284.4V78.6C284.4 81.6 285.2 84 287 85.8C288.8 87.6 291 88.6 294 88.6C296.6 88.6 299.6 88.2 302.8 87.4L305.2 101.2C299.8 102.6 294.6 103.4 289.6 103.4C286.2 103.4 283 102.8 280.2 101.8C277.4 100.8 275 99.2 272.8 97.2C270.6 95.2 269.2 92.8 268 90C266.8 87.2 266.4 84.2 266.4 80.8V45.4H253.6V31.4H266.4V10.8H284.2V31H284.4Z" fill="#333433"/>
<path d="M332.8 79.8C332.8 82.6 334 85 336.2 87C338.6 89 341.4 90 344.8 90C349.6 90 353.4 88.4 356.4 85.4C359.4 82.4 360.8 78.4 360.8 73.6V69.4C357.4 68.4 353.6 68 349.4 68C344.2 68 340.2 69 337.2 71.2C334.4 73.2 332.8 76.2 332.8 79.8ZM315.4 80.8C315.4 73.4 318.2 67.6 323.8 63.6C329.4 59.6 337.2 57.6 347.4 57.6C349.6 57.6 351.8 57.8 354 58C356.2 58.2 358.6 58.6 360.8 59V55.2C360.8 51.6 359.6 48.6 357 46.4C354.4 44.2 351 43 346.6 43C339.6 43 332 44.6 323.8 48L319.2 35.2C329.2 31.2 339 29.4 348.6 29.4C353 29.4 356.8 30 360.4 31.4C364 32.6 367 34.4 369.6 36.8C372.2 39 374.2 41.8 375.6 45C377 48.2 377.8 51.8 377.8 55.6V84.2C377.8 85.8 378.2 87 379 87.8C379.8 88.8 381 89.2 382.6 89.2C383.4 89.2 384 89.2 384.8 89C385.4 89 386 88.8 386.2 88.8L387.4 102.2C385.8 102.4 384.4 102.8 382.8 103C381.2 103.2 379.6 103.2 377.8 103.2C374.2 103.2 371.2 102.4 368.6 100.6C366 99 364.2 96.6 363 93.6C360 96.6 356.4 99 352.6 100.6C348.6 102.2 344.6 103 340.2 103C336.6 103 333.2 102.4 330.2 101.4C327.2 100.4 324.6 98.8 322.4 96.8C320.2 94.8 318.6 92.6 317.4 89.8C316 87 315.4 84 315.4 80.8Z" fill="#333433"/>
<path d="M397.8 30.8H412.2L414.4 40.4C417.2 36.8 420.4 34 424.4 32C428.4 30 432.6 29 437.2 29C442.4 29 446.8 30.2 450.8 32.4C454.6 34.6 457.6 37.8 459.6 41.8C462.8 37.6 466.6 34.4 470.8 32.2C475 30 479.6 29 484.8 29C488.6 29 492 29.6 495.2 30.8C498.4 32 501.2 33.8 503.4 36.2C505.8 38.4 507.6 41.2 508.8 44.4C510 47.6 510.8 51 510.8 54.8V101.2H492.6V57.8C492.6 53.8 491.4 50.6 488.8 48C486.2 45.6 483 44.2 479 44.2C474.4 44.2 470.6 45.8 467.6 49C464.6 52.2 463.2 56.2 463.2 61.4V101.2H445V57.8C445 53.8 443.8 50.6 441.4 48C439 45.6 435.8 44.2 431.8 44.2C427 44.2 423.2 45.8 420.2 49C417.2 52.2 415.8 56.2 415.8 61.4V101.2H397.6V30.8H397.8Z" fill="#333433"/>
<path d="M580 65.8C580 62.6 579.6 59.6 578.6 56.8C577.8 54 576.4 51.6 574.8 49.8C573.2 47.8 571.4 46.4 569.2 45.2C567 44 564.6 43.6 562 43.6C557.2 43.6 553.4 45.2 550.2 48.6C547.2 51.8 545.6 56 545.6 61.2V70.6C545.6 73.2 546 75.6 546.8 77.6C547.6 79.8 548.8 81.6 550.2 83.2C551.6 84.8 553.4 86 555.4 86.8C557.4 87.6 559.6 88 562 88C564.6 88 567 87.4 569.2 86.4C571.4 85.4 573.2 83.8 574.8 81.8C576.4 79.8 577.6 77.4 578.6 74.8C579.6 72.2 580 69 580 65.8ZM528 30.8H542.4L544.6 39.8C547.2 36.4 550.2 33.8 554 31.8C557.8 30 562 29 566.6 29C571.2 29 575.4 30 579.4 31.8C583.2 33.6 586.6 36.2 589.4 39.4C592.2 42.6 594.4 46.4 596 51C597.6 55.4 598.4 60.4 598.4 65.8C598.4 71.2 597.6 76.2 596 80.6C594.4 85 592.2 89 589.4 92.2C586.6 95.4 583.2 98 579.4 99.8C575.6 101.6 571.2 102.6 566.6 102.6C562.4 102.6 558.4 101.8 555 100.2C551.4 98.6 548.4 96.2 546 93V135.6H528V30.8Z" fill="#333433"/>
<path d="M61.2 83.2C58.4 86 54.6 87.2 49.8 87.2H27.4V58.2H49.8C54.4 58.2 58.2 59.6 61.2 62.2C64 64.8 65.4 68.4 65.4 72.6C65.6 77 64.2 80.6 61.2 83.2ZM27.4 19H48C52.2 19 55.6 20.2 58.4 22.8C61.2 25.2 62.4 28.6 62.4 32.6C62.4 36.6 61 39.8 58.4 42.2C55.6 44.6 52.2 45.8 48 45.8H27.4V19ZM79.6 60C76.6 55.8 72.6 52.8 67.6 51C71.6 49.2 74.6 46.6 77 43C79.4 39.4 80.6 35.2 80.6 30.4C80.6 26.6 79.8 23.2 78.4 20.2C77 17 74.8 14.4 72.2 12.2C69.6 10 66.4 8.20002 62.8 7.00002C59.2 5.80002 55.2 5.20001 50.8 5.20001H0V18C7.8 18 14 24.4 14 32.2C14 40 7.8 46.4 0 46.4V58C7.8 58 14 64.4 14 72.2V74.4C14 82.2 7.8 88.6 0 88.6V101.4H53C57.6 101.4 61.6 100.8 65.4 99.4C69.2 98.2 72.4 96.4 75.2 94C78 91.6 80.2 88.8 81.6 85.6C83.2 82.4 84 78.8 84 74.8C84 69 82.6 64.2 79.6 60Z" fill="#333433"/>
</svg>
