<svg width="200" height="93" viewBox="0 0 200 93" fill="none" xmlns="http://www.w3.org/2000/svg">
<path d="M9.92017 0.531925C6.06725 1.32908 2.87862 3.94198 1.06288 7.88348L0 10.2307L0.132859 31.621L0.310005 53.0114L1.46145 57.3072C3.72006 65.5445 8.41443 73.5603 14.6145 79.5833L17.316 82.1962V62.4001C17.316 45.9698 17.4489 41.9841 18.0246 39.1497C20.9475 24.9781 31.222 16.9179 46.2794 16.9179C55.3138 16.9179 61.6025 19.1322 66.7397 24.0923C70.1941 27.4138 72.1869 30.5581 73.8255 35.2968C74.977 38.5297 75.0656 39.3712 75.0656 45.2613C75.0656 51.1071 74.977 51.9928 73.8698 55.1371C71.3898 62.2673 67.7583 66.3416 60.9382 69.6188C54.2952 72.8074 52.2137 73.2503 41.585 73.4717L32.3734 73.6932V82.019V90.3449L34.4992 91.0535C39.9021 92.7806 41.4078 92.8692 62.4882 92.8692C82.55 92.8692 83.1257 92.8249 85.1186 91.9392C87.5543 90.7877 90.0344 88.4406 91.363 85.8719C92.3816 84.0119 92.3816 83.9676 92.3816 62.3115C92.3816 40.8769 92.3816 40.5669 91.3187 36.6254C88.9715 27.6795 85.1186 20.9037 78.6971 14.4379C70.6812 6.37774 60.8939 1.72766 49.6008 0.531925C44.375 0.00048789 12.6659 0.00048789 9.92017 0.531925Z" fill="#1A8D57"/>
<path d="M118.511 16.2979C112.975 17.1394 108.812 19.3537 104.959 23.4723C102.479 26.0852 99.2902 30.8682 99.7774 31.311C99.8217 31.3553 102.08 33.2596 104.737 35.474L109.609 39.504L110.982 36.9354C114.17 30.9124 117.005 28.8753 122.098 28.8753C127.722 28.8753 130.468 31.5767 130.114 36.6254C129.759 41.2755 128.032 43.7998 121.921 48.6713C110.406 57.7943 106.243 62.1787 103.32 68.3788C101.593 72.0103 101.017 74.9775 101.017 79.8047V83.7905H122.053H143.09V77.3689V70.9474H129.804C122.496 70.9474 116.518 70.7703 116.518 70.5931C116.518 69.8845 122.939 64.0387 130.025 58.2372C141.584 48.8485 143.975 44.597 143.444 34.4554C143.045 27.1481 139.724 21.878 133.524 18.778C132.062 18.0694 130.025 17.2722 128.918 17.0065C126.571 16.4308 120.371 16.0322 118.511 16.2979Z" fill="#161327"/>
<path d="M169.351 16.6522C165.144 17.6708 161.557 19.7965 158.501 23.0295C156.907 24.7123 155.18 27.0152 154.648 28.1667C152.434 32.6839 152.39 33.2596 152.39 59.0786V83.3476H167.359C183.745 83.3476 185.693 83.1262 190.387 80.7347C196.41 77.6789 199.333 72.276 199.333 64.0387C199.333 57.3072 197.34 52.7457 192.956 49.2913C192.026 48.5385 191.052 47.9184 190.786 47.9184C190.565 47.9184 191.185 46.9884 192.248 45.8813C195.303 42.5598 196.012 40.5226 196.012 34.8539C196.012 30.2924 195.923 29.8053 194.595 27.0152C192.69 22.9409 190.122 20.328 186.313 18.4679C181.53 16.1208 174.577 15.4122 169.351 16.6522ZM179.847 29.4067C182.239 30.6467 183.479 32.9053 183.479 35.9168C183.479 38.7511 182.46 40.5669 179.936 42.0283C177.943 43.2241 177.544 43.2684 171.256 43.4012L164.657 43.5784L164.923 39.4154C165.144 34.8539 165.853 32.8168 167.757 31.001C169.617 29.2296 171.743 28.4767 174.976 28.4324C177.146 28.4324 178.386 28.6981 179.847 29.4067ZM182.903 56.5543C185.073 57.8386 186.047 59.3443 186.357 61.9573C186.712 65.013 185.826 68.0245 184.232 69.3531C182.416 70.9031 179.36 71.3903 171.654 71.3903H164.79V63.3744V55.3586L173.116 55.5357C180.423 55.6686 181.574 55.7571 182.903 56.5543Z" fill="#161327"/>
<path d="M42.1164 31.6653C37.6435 32.9496 34.7649 35.9168 33.1706 40.9212C32.5063 43.0912 32.3734 45.0398 32.3734 51.3285V59.0343L41.3636 58.9015L50.3094 58.7686L52.6566 57.44C55.4909 55.89 56.9081 54.2957 58.4581 51.0185C60.0082 47.6527 60.0082 42.1612 58.5024 38.7069C57.2624 35.8725 54.0295 32.8168 51.3723 32.0196C48.538 31.1782 44.4193 31.001 42.1164 31.6653Z" fill="#1A8D57"/>
</svg>
