<svg width="140" height="140" viewBox="0 0 140 140" fill="none" xmlns="http://www.w3.org/2000/svg">
<g clip-path="url(#clip0_1_14)">
<path d="M19.1857 7.01237e-06H68.1913C77.6219 -0.00416075 86.961 1.84953 95.675 5.45518C104.389 9.06084 112.307 14.3478 118.977 21.014C125.647 27.6803 130.938 35.5952 134.548 44.3066C138.158 53.0179 140.016 62.3551 140.016 71.7847V120.801C140.018 123.321 139.524 125.818 138.561 128.147C137.598 130.477 136.185 132.594 134.403 134.377C132.621 136.16 130.505 137.574 128.176 138.539C125.847 139.504 123.351 140.001 120.83 140H72.134C62.6676 140.007 53.2927 138.149 44.5444 134.533C35.7961 130.917 27.8458 125.613 21.1475 118.925C14.4492 112.237 9.13404 104.295 5.50554 95.5523C1.87704 86.81 0.00625208 77.4386 3.69146e-06 67.9734V19.1915C-0.00155984 16.6715 0.493569 14.1758 1.45709 11.8472C2.42061 9.51861 3.83364 7.40269 5.61541 5.62039C7.39718 3.83808 9.51276 2.42434 11.8412 1.45997C14.1697 0.49559 16.6654 -0.000514572 19.1857 7.01237e-06Z" fill="#309245"/>
<path d="M134.189 134.511C103.798 84.694 55.9708 47.9527 0 31.4266L0 67.9139C0.0523832 87.0231 7.67027 105.334 21.1878 118.843C34.7053 132.351 53.0226 139.958 72.134 140H120.882C125.864 139.979 130.641 138.009 134.189 134.511Z" fill="#44A257"/>
<path d="M41.3463 26.4215C37.2994 26.4215 33.4182 28.029 30.5566 30.8903C27.695 33.7516 26.0874 37.6323 26.0874 41.6788V123.248C32.9857 129.008 40.8997 133.429 49.422 136.284V108.165C55.2445 111.363 61.7214 113.188 68.3573 113.499C74.9932 113.81 81.6125 112.6 87.7089 109.961C93.8052 107.322 99.2173 103.324 103.531 98.2721C107.845 93.2206 110.946 87.2496 112.598 80.8158C114.25 74.3819 114.409 67.6556 113.061 61.1511C111.714 54.6466 108.898 48.5362 104.826 43.2873C100.755 38.0384 95.5374 33.7899 89.572 30.8667C83.6067 27.9435 77.0518 26.423 70.4085 26.4215H41.3463ZM70.3927 91.0159C65.0854 91.0174 59.9739 89.0116 56.0842 85.4012C52.1945 81.7908 49.8146 76.8429 49.422 71.5507V68.4453C49.7239 64.3655 51.2098 60.4623 53.6977 57.2145C56.1856 53.9667 59.5673 51.5155 63.4281 50.1612C67.289 48.807 71.4611 48.6087 75.4329 49.5907C79.4048 50.5727 83.0038 52.6922 85.7885 55.6894C88.5733 58.6866 90.4228 62.4313 91.1103 66.4641C91.7978 70.4969 91.2933 74.6428 89.6589 78.3931C88.0244 82.1435 85.3309 85.3355 81.9086 87.5777C78.4864 89.8198 74.4842 91.0147 70.3927 91.0159Z" fill="#F1F2F2"/>
</g>
<defs>
<clipPath id="clip0_1_14">
<rect width="140" height="140" fill="white"/>
</clipPath>
</defs>
</svg>
