<svg width="120" height="120" viewBox="0 0 120 120" fill="none" xmlns="http://www.w3.org/2000/svg">
<circle cx="60" cy="60" r="60" fill="#EDF0F4"/>
<path d="M41.9309 59.6948C41.7602 62.66 44.0428 65.1986 47.008 65.3692C47.1146 65.3692 47.2213 65.3692 47.3279 65.3692C50.3145 65.3692 52.725 62.9587 52.7037 59.9722C52.7037 56.9856 50.2931 54.5751 47.3066 54.5964C44.4481 54.5964 42.0802 56.8363 41.9309 59.6948Z" fill="#0033AD"/>
<path d="M21.8364 58.3082C20.8764 58.2442 20.0445 58.9909 20.0018 59.9508C19.9591 60.9108 20.6844 61.7428 21.6444 61.7854C22.6043 61.8494 23.415 61.1028 23.479 60.1428C23.543 59.1829 22.7963 58.3722 21.8364 58.3082V58.3082Z" fill="#0033AD"/>
<path d="M41.5908 28.4216C42.4441 27.9949 42.7854 26.9283 42.3588 26.075C41.9321 25.2217 40.8655 24.8804 40.0122 25.3071C39.1589 25.7337 38.8176 26.779 39.2442 27.6323C39.6709 28.5069 40.7162 28.8696 41.5908 28.4216C41.5695 28.4216 41.5908 28.4216 41.5908 28.4216Z" fill="#0033AD"/>
<path d="M47.0511 37.9571C48.3737 37.2958 48.907 35.6746 48.2457 34.352C47.5844 33.0294 45.9632 32.4961 44.6405 33.1574C43.3179 33.8187 42.7846 35.4399 43.4459 36.7625C44.1072 38.0851 45.7285 38.6184 47.0511 37.9571Z" fill="#0033AD"/>
<path d="M28.662 44.5062C29.686 45.1675 31.0512 44.8902 31.7339 43.8662C32.3952 42.8423 32.1179 41.477 31.0939 40.7944C30.0699 40.1331 28.7047 40.4104 28.022 41.4343V41.4343C27.3394 42.4583 27.6381 43.8449 28.662 44.5062Z" fill="#0033AD"/>
<path d="M31.9257 57.3483C30.4325 57.2629 29.1738 58.3936 29.0885 59.8868C29.0032 61.3801 30.1338 62.6387 31.6271 62.724C33.1203 62.8094 34.3789 61.6788 34.4643 60.1855V60.1855C34.5496 58.7136 33.419 57.4336 31.9257 57.3483Z" fill="#0033AD"/>
<path d="M28.9619 75.4168C27.874 75.9714 27.426 77.2941 27.9806 78.4033C28.5353 79.4913 29.8579 79.9393 30.9672 79.3846C32.0551 78.83 32.5031 77.5074 31.9484 76.3981V76.3981C31.3938 75.3101 30.0499 74.8622 28.9619 75.4168V75.4168Z" fill="#0033AD"/>
<path d="M39.4139 51.7805C40.8858 52.7405 42.8484 52.3352 43.787 50.8632C44.747 49.3913 44.3417 47.4287 42.8697 46.4901C41.3978 45.5302 39.4352 45.9355 38.4966 47.4074C37.5366 48.858 37.9419 50.8206 39.4139 51.7805V51.7805Z" fill="#0033AD"/>
<path d="M72.5858 37.7438C73.8231 38.5545 75.5084 38.2131 76.319 36.9759C77.1296 35.7386 76.7883 34.0533 75.551 33.2427C74.3137 32.4321 72.6285 32.7734 71.8179 34.0107V34.0107C70.9859 35.2693 71.3272 36.9332 72.5858 37.7438V37.7438Z" fill="#0033AD"/>
<path d="M78.0902 28.2509C78.9009 28.7842 79.9675 28.5496 80.5008 27.739C81.0341 26.9283 80.7994 25.8617 79.9888 25.3284C79.1782 24.7951 78.1116 25.0297 77.5782 25.819C77.0663 26.6297 77.3009 27.7176 78.0902 28.2509V28.2509Z" fill="#0033AD"/>
<path d="M72.992 54.5537C70.0268 54.3831 67.4669 56.6657 67.3176 59.6309C67.1469 62.5961 69.4295 65.1559 72.3947 65.3053C72.5013 65.3053 72.608 65.3053 72.6933 65.3053C75.6585 65.3053 78.0691 62.8947 78.0691 59.9082C78.0904 57.071 75.8505 54.7031 72.992 54.5537V54.5537Z" fill="#0033AD"/>
<path d="M48.8211 51.3965C49.7384 53.2098 51.5943 54.3617 53.6422 54.3617C56.6074 54.3617 59.018 51.9512 59.018 48.9647C59.018 48.1327 58.826 47.3007 58.442 46.5328C57.0981 43.8662 53.8556 42.7996 51.2103 44.1435C48.5438 45.5088 47.4772 48.7513 48.8211 51.3965V51.3965Z" fill="#0033AD"/>
<path d="M91.0377 44.5062C92.1257 43.9515 92.5523 42.6076 91.9977 41.5197C91.443 40.4317 90.0991 40.0051 89.0111 40.5597C87.9232 41.1143 87.4965 42.4369 88.0298 43.5249C88.6058 44.6128 89.9284 45.0608 91.0377 44.5062V44.5062Z" fill="#0033AD"/>
<path d="M77.3852 46.2128C75.8279 47.0021 75.188 48.9007 75.9772 50.4579C76.7665 52.0152 78.6651 52.6552 80.2224 51.8659C81.7797 51.0766 82.4196 49.178 81.6303 47.6207C80.841 46.0635 78.9425 45.4448 77.3852 46.2128Z" fill="#0033AD"/>
<path d="M59.787 27.4403C61.003 27.5043 62.0483 26.5657 62.1336 25.3497C62.2189 24.1338 61.259 23.0885 60.043 23.0032C58.8271 22.9392 57.7818 23.8564 57.6964 25.0724C57.6324 26.3097 58.5711 27.355 59.787 27.4403V27.4403Z" fill="#0033AD"/>
<path d="M59.7658 41.3703C61.5151 41.477 63.0084 40.1331 63.0937 38.3838C63.2003 36.6345 61.8564 35.1413 60.1071 35.056C58.3579 34.9493 56.8646 36.2932 56.7793 38.0425C56.694 39.7917 58.0166 41.285 59.7658 41.3703V41.3703Z" fill="#0033AD"/>
<path d="M42.615 73.7102C44.1722 72.9209 44.8122 71.0223 44.0229 69.4651C43.2336 67.9078 41.335 67.2678 39.7778 68.0571C38.2205 68.8464 37.5805 70.745 38.3698 72.3023C39.1591 73.8596 41.0577 74.4995 42.615 73.7102Z" fill="#0033AD"/>
<path d="M61.8139 45.9995C60.1926 48.4953 60.8753 51.8232 63.3711 53.4445C65.867 55.0657 69.1949 54.3831 70.8161 51.8872C72.4374 49.3913 71.7548 46.0635 69.2589 44.4422C68.3843 43.8662 67.3603 43.5676 66.315 43.5676C64.5018 43.5676 62.8165 44.4849 61.8139 45.9995Z" fill="#0033AD"/>
<path d="M71.1783 68.5264C69.8344 65.8599 66.5919 64.7933 63.9467 66.1372C61.2801 67.4812 60.2135 70.7237 61.5574 73.3689C62.9014 76.0354 66.1439 77.1021 68.7891 75.7581V75.7581C71.4343 74.4355 72.5223 71.2357 71.1997 68.5691C71.1997 68.5478 71.1997 68.5478 71.1783 68.5264Z" fill="#0033AD"/>
<path d="M80.5865 68.1425C79.1146 67.1825 77.152 67.5878 76.2134 69.0597C75.2534 70.5317 75.6587 72.4943 77.1307 73.4329C78.6026 74.3928 80.5652 73.9875 81.5038 72.5156C82.4638 71.065 82.0584 69.1024 80.5865 68.1425V68.1425Z" fill="#0033AD"/>
<path d="M90.9115 60.0575C90.9969 58.5642 89.8663 57.3056 88.373 57.2203C86.8797 57.135 85.6211 58.2656 85.5358 59.7588C85.4504 61.2521 86.5811 62.5107 88.0743 62.596V62.596C89.5463 62.6814 90.8262 61.5294 90.9115 60.0575Z" fill="#0033AD"/>
<path d="M98.3559 58.1376C97.3959 58.0736 96.564 58.8202 96.5213 59.7802C96.4787 60.7401 97.204 61.5721 98.1639 61.6148C99.1239 61.6788 99.9345 60.9321 99.9985 59.9722C100.041 59.0122 99.3159 58.2016 98.3559 58.1376Z" fill="#0033AD"/>
<path d="M91.3364 75.4168C90.3125 74.7555 88.9472 75.0328 88.2646 76.0568C87.6033 77.0807 87.8806 78.446 88.9045 79.1286C89.9285 79.7899 91.2938 79.5126 91.9764 78.4887C92.659 77.4647 92.3604 76.0781 91.3364 75.4168V75.4168Z" fill="#0033AD"/>
<path d="M41.8894 91.6721C41.0787 91.1388 40.0121 91.3734 39.4788 92.1627C38.9455 92.9734 39.1802 94.04 39.9695 94.5733C40.7801 95.1066 41.8467 94.8719 42.38 94.0826V94.0826C42.9347 93.2933 42.7 92.2054 41.8894 91.6721Z" fill="#0033AD"/>
<path d="M78.4106 91.5014C77.5573 91.9281 77.216 92.9947 77.6427 93.848C78.0693 94.7013 79.1359 95.0426 79.9892 94.6159C80.8425 94.1893 81.1838 93.144 80.7572 92.2907C80.3305 91.4161 79.2853 91.0534 78.4106 91.5014C78.432 91.5014 78.4106 91.5014 78.4106 91.5014Z" fill="#0033AD"/>
<path d="M58.1867 73.9235C59.808 71.4276 59.1254 68.0998 56.6295 66.4572C54.1336 64.8359 50.8057 65.5186 49.1631 68.0145C47.5205 70.5103 48.2245 73.8382 50.7204 75.4808C51.595 76.0568 52.619 76.3554 53.6643 76.3554C55.4989 76.3768 57.1841 75.4595 58.1867 73.9235Z" fill="#0033AD"/>
<path d="M47.4131 82.1792C46.1758 81.3685 44.4906 81.7099 43.6799 82.9471C42.8693 84.1844 43.2106 85.8697 44.4479 86.6803C45.6852 87.4909 47.3704 87.1496 48.1811 85.9123V85.9123C49.013 84.6751 48.6717 82.9898 47.4131 82.1792Z" fill="#0033AD"/>
<path d="M59.9788 92.4827C58.7628 92.4187 57.7176 93.3573 57.6322 94.5733C57.5469 95.7892 58.5069 96.8345 59.7228 96.9198C60.9388 96.9838 61.984 96.0665 62.0694 94.8506C62.1334 93.6133 61.1947 92.568 59.9788 92.4827V92.4827Z" fill="#0033AD"/>
<path d="M59.9998 78.5527C58.2505 78.446 56.7573 79.7899 56.672 81.5392C56.5653 83.2884 57.9092 84.7817 59.6585 84.867C61.4077 84.9524 62.901 83.6298 62.9863 81.8805C63.093 80.1526 61.7491 78.638 59.9998 78.5527V78.5527Z" fill="#0033AD"/>
<path d="M72.9494 81.9659C71.6268 82.6485 71.0935 84.2698 71.7762 85.5924C72.4588 86.915 74.08 87.4483 75.4027 86.7656C76.7253 86.1043 77.2586 84.4831 76.5973 83.1605C75.9146 81.8379 74.2934 81.2832 72.9494 81.9659V81.9659Z" fill="#0033AD"/>
</svg>
