<svg width="120" height="120" viewBox="0 0 120 120" fill="none" xmlns="http://www.w3.org/2000/svg">
<circle cx="60" cy="60" r="60" fill="#988430"/>
<circle cx="60" cy="60" r="58.0781" fill="#7A6A2A"/>
<circle cx="60.0009" cy="60" r="56.8544" fill="#BA9F33"/>
<path fill-rule="evenodd" clip-rule="evenodd" d="M26.2322 53.5923C25.8924 53.2819 25.5333 52.9709 25.2031 52.6605C24.8728 52.3501 24.5336 52.039 24.1938 51.7286L23.1839 50.7686C23.0188 50.6035 22.844 50.4582 22.6789 50.2925C22.5138 50.1472 22.3199 49.9821 22.1548 49.8362C20.8146 48.5645 19.4668 47.2928 18.1452 46.0205C19.5141 47.273 20.8543 48.5165 22.2232 49.7875L22.6988 50.2637C22.8639 50.4282 23.0386 50.5741 23.2037 50.7392L24.213 51.671C24.5528 51.9814 24.8831 52.2925 25.2229 52.631C25.5628 52.9696 25.893 53.2813 26.2328 53.591L26.2322 53.5923ZM8.44595 53.4003C8.44595 53.4003 13.3196 53.9046 15.6984 54.2445C17.902 54.5555 24.7954 55.6134 24.7954 55.6134L8.44595 53.4003ZM8.44595 53.4003C9.81491 53.5168 11.1839 53.6621 12.5528 53.808C13.2517 53.8758 13.9218 53.9533 14.5919 54.0211L15.6204 54.1382C15.9602 54.1862 16.2904 54.2349 16.6303 54.2835L20.7084 54.9338L22.7468 55.2736C23.4168 55.3901 24.0869 55.5168 24.7858 55.6333C24.1157 55.5654 23.4168 55.4682 22.7468 55.3709L20.7084 55.0797L16.6303 54.4781C16.2904 54.4294 15.9602 54.361 15.6204 54.313L14.5912 54.1946C13.9212 54.1267 13.2223 54.0294 12.5522 53.9514C11.1832 53.7869 9.81427 53.6115 8.44531 53.3984L8.44595 53.4003ZM24.3103 56.8832C24.3103 56.8832 19.1064 58.2042 17.349 58.7091C15.621 59.1846 10.3877 60.777 10.3877 60.777L24.3096 56.8838L24.3103 56.8832Z" fill="#CFB66C"/>
<path fill-rule="evenodd" clip-rule="evenodd" d="M24.3106 56.8832C23.1554 57.223 22.0066 57.5533 20.8348 57.8643L17.3589 58.7962C16.2037 59.136 15.0549 59.4662 13.9029 59.8061L12.1749 60.2816C11.6021 60.4467 11.0197 60.592 10.4277 60.7578C10.9999 60.5658 11.5829 60.3693 12.1557 60.2042L13.8837 59.6512C15.0389 59.2915 16.1877 58.9517 17.3397 58.5926C18.5141 58.3014 19.67 57.9904 20.8444 57.7088C21.9605 57.4272 23.1356 57.1462 24.3106 56.8838V56.8838V56.8832ZM11.117 63.9808C11.6892 63.767 18.2914 60.6899 19.8255 59.9712C20.5935 59.6115 22.8258 58.8192 22.8258 58.8192L11.117 63.9808Z" fill="#CFB66C"/>
<path fill-rule="evenodd" clip-rule="evenodd" d="M11.1159 63.9808C11.6202 63.7888 12.0964 63.5539 12.5815 63.3306L14.0183 62.6605L16.9021 61.2723C17.8621 60.816 18.7952 60.3123 19.7853 59.8835C20.2903 59.6704 20.7952 59.4957 21.2996 59.3306L22.0676 59.088C22.3293 59.0202 22.5725 58.9421 22.8356 58.8742C21.8756 59.3306 20.865 59.719 19.9037 60.1651C18.9437 60.6413 17.962 61.0298 16.9712 61.4566L14.0394 62.7475C13.0551 63.1462 12.0951 63.5731 11.1152 63.9808V63.9808H11.1159ZM11.7559 66.6688C11.7559 66.6688 17.736 63.1642 19.7943 62.0378C20.872 61.4362 24.3575 59.7075 24.3575 59.7075L11.7559 66.6688Z" fill="#CFB66C"/>
<path fill-rule="evenodd" clip-rule="evenodd" d="M11.7578 66.6701C12.7671 66.0486 13.7962 65.4176 14.8253 64.777L16.3613 63.8445C16.8855 63.5341 17.3905 63.2429 17.9249 62.9325C18.449 62.6214 18.954 62.311 19.4877 62.0198C19.7418 61.863 20.0081 61.7266 20.2839 61.6122L21.0993 61.2045C22.177 60.6803 23.2548 60.1459 24.3908 59.6896C23.3617 60.3405 22.3031 60.8941 21.2452 61.4662C20.721 61.7574 20.1866 62.0198 19.6625 62.311C19.1383 62.6022 18.6333 62.9133 18.0989 63.1949C17.5748 63.5053 17.0698 63.7965 16.5361 64.0781L14.9533 64.9421L11.7591 66.6701V66.6701H11.7578ZM24.3108 60.4755C24.3108 60.4755 20.5924 63.3299 19.3885 64.2426C18.1847 65.1552 14.641 67.7184 14.641 67.7184L24.3108 60.4755V60.4755Z" fill="#CFB66C"/>
<path fill-rule="evenodd" clip-rule="evenodd" d="M45.6508 83.495L43.748 79.8931L44.8546 75.3881L52.7477 72.3398L49.3884 65.447L51.0485 58.4857L54.1653 52.2521L63.7967 50.7379L70.8738 43.9904L86.1557 45.1456L89.1554 61.4854L83.3788 82.0582L80.0879 92.7091L66.7477 93.2141L60.5538 88.9229L53.3013 85.8931L45.6508 83.495V83.495Z" fill="#E2CC85"/>
<path fill-rule="evenodd" clip-rule="evenodd" d="M69.0481 83.3786C69.0481 83.3786 67.2029 84.2234 64.0561 84.0288C63.1453 82.8058 56.7671 82.233 56.7671 82.233C56.7671 82.233 55.9709 81.9904 54.5629 82.5728C53.146 83.1488 51.8058 83.0778 50.5533 83.3882C49.3009 83.6986 48.0573 82.0678 47.0973 81.728C46.1373 81.369 44.8644 80.505 44.8644 80.505L42.1764 80.2426L36.7786 77.961L28.2033 69.4176L25.873 73.0656L25.1543 77.5802L27.7469 82.9299L34.7274 89.289L48.3389 92.745L56.4068 90.368L66.5137 86.096L69.0481 83.3779V83.3786Z" fill="#F1D789"/>
<path fill-rule="evenodd" clip-rule="evenodd" d="M20.6898 53.1846L22.4178 47.952L24.4767 44.5728L31.1071 44.0192L29.1167 49.8253L23.5737 59.6896L25.8745 68.4954L21.797 70.5338L20.5439 68.6118L19.5346 64.2042L19.4668 59.2525L20.6898 53.1846V53.1846Z" fill="#F4ECB4"/>
<path fill-rule="evenodd" clip-rule="evenodd" d="M28.1256 83.0195L26.854 81.2429C26.854 81.2429 26.5141 80.3981 26.7087 79.6602C26.9007 78.9127 26.8732 78.864 26.7765 78.5824C26.6799 78.3008 25.8639 77.3299 25.9125 76.4947C25.9605 75.6499 25.8447 75.3683 26.4655 74.6989C27.1157 74.0487 26.9218 72.9223 26.9218 72.9223L27.7666 73.4464L27.9586 73.1552C27.9586 73.1552 28.269 73.3978 28.269 73.7767C28.3368 73.2525 28.0552 70.825 28.6959 70.272C29.3365 69.7191 30.4725 72.864 30.4725 72.864L29.7736 68.3008L27.9772 63.6218L24.7829 59.3498L24.5909 54.6407V54.233C24.5909 54.233 23.1247 56.4858 22.717 58.265C22.4258 59.488 23.1247 60.9735 22.9794 62.7309C22.8623 64.4787 22.717 64.3424 23.1439 65.0349C23.5708 65.7274 24.6101 67.1514 24.2024 68.1805C23.8434 69.0643 22.6197 68.4429 22.6197 68.4429C22.6197 68.4429 22.3772 69.161 22.0469 69.4234C21.9304 68.9965 21.8044 68.7245 21.5714 68.4634C21.5516 68.6285 21.5036 68.8519 21.5036 68.8519C21.5036 68.8519 21.2898 68.1818 21.076 67.337C20.7855 66.2112 20.4744 64.7258 20.1928 63.9296C20.0764 64.3859 19.7852 65.7741 19.7852 65.7741L19.9503 67.9104L20.7464 70.8423L21.5144 72.7623L22.262 75.1117L22.9116 76.6899L23.4357 77.8938L23.892 80.6029L26.0956 82.9325L27.2706 83.4573L28.1244 83.0202V83.0202L28.1256 83.0195Z" fill="#F3E19D"/>
<path fill-rule="evenodd" clip-rule="evenodd" d="M21.8453 48.9126C21.8453 48.9126 20.2626 51.6006 19.8069 54.3104C19.3512 57.0202 18.9429 59.8835 19.2309 63.5725C19.5221 67.2915 20.0757 69.5725 20.5224 71.2038C21.2904 73.913 23.2795 77.68 23.2795 77.68L23.3474 77.5341C23.013 76.9003 22.7462 76.2332 22.5512 75.5437C22.2888 74.5146 22.1915 73.2915 21.949 72.7379C21.7352 72.185 21.3762 71.7088 21.2014 71.0291C21.0363 70.3789 21.0094 69.3498 20.5026 68.583C20.2888 68.272 20.0264 67.4566 19.949 66.6413C19.8517 65.4176 19.9976 64.0486 19.8811 62.9229C19.6674 61.049 19.5221 59.7773 19.716 58.7962C19.9099 57.815 20.9205 55.0298 21.5419 52.816C21.9496 51.3984 21.7064 50.2042 22.4539 48.9709C23.2014 47.7478 23.6584 46.6701 23.8229 45.9226C24.0149 45.2429 21.8427 48.9126 21.8427 48.9126V48.9126H21.8453Z" fill="#F2E8B0"/>
<path fill-rule="evenodd" clip-rule="evenodd" d="M29.3503 47.8349C29.3503 47.8349 28.5349 48.0781 28.1465 48.5049C27.758 48.9126 27.5929 49.2525 27.0687 49.9417C26.5445 50.631 26.5151 51.1942 26.0876 52.0582C25.6607 52.903 24.7186 54.1747 24.6021 54.631C24.4857 55.0873 24.2917 57.223 24.0492 58.2329C23.8354 59.2429 24.2917 60.4857 24.2917 60.4857L24.8447 60.3686C24.8447 60.3686 24.8447 61.0873 25.3983 61.5731C25.9513 62.0486 26.0485 59.9609 26.0485 59.9609L28.1164 52.9805L31.2325 50.864L31.5724 49.1552L29.349 47.8349V47.8349H29.3503Z" fill="#F5EEC0"/>
<path fill-rule="evenodd" clip-rule="evenodd" d="M30.8642 51.0003C30.8642 51.0003 29.398 51.097 28.6799 51.6218C28.3887 51.8349 28.2722 52.0096 27.9618 52.272C27.389 52.7475 26.806 53.1846 26.525 53.808C26.214 54.4288 25.8742 55.3709 25.6412 57.1475C25.5439 57.895 25.5439 58.5843 25.4761 59.1866C25.3788 60.0019 25.2335 60.6522 25.311 61.1066C25.4082 62.0384 26.3695 62.5242 26.463 63.5821L28.4534 62.5728L30.3273 55.184L34.3081 52.688L32.0553 50.1638L30.8617 50.9958V50.9958L30.8642 51.0003Z" fill="#E6DB9D"/>
<path fill-rule="evenodd" clip-rule="evenodd" d="M20.3639 100.755C20.3722 100.682 20.3806 100.609 20.3889 100.534C20.6794 98.0378 20.7287 96.1459 20.9418 94.9613C21.2522 93.2819 21.466 92.6573 21.4174 92.0288C21.3495 91.0195 21.2721 90.2816 21.3694 89.5046C21.5146 88.4755 22.5246 87.2525 22.4958 86.4077C22.4759 85.7376 22.1361 85.3011 21.8449 84.8934C21.5537 84.4858 21.3207 84.1459 21.3207 84.1459C21.3207 84.1459 23.3111 82.777 23.2919 77.2621C23.3326 77.2735 23.3717 77.2899 23.4084 77.3107L24.3889 80.0966L25.059 80.912L27.6318 85.7082L30.9425 88.9222L35.8353 92.2131L38.9034 95.552L39.2138 104.455L35.2042 109.659L34.5476 110.848C29.3308 108.229 24.5469 104.825 20.3633 100.754L20.3639 100.755Z" fill="#E5CB7A"/>
<path fill-rule="evenodd" clip-rule="evenodd" d="M32.6113 109.272C32.6113 109.272 32.6792 108.165 33.5918 107.446C33.7377 107.689 33.8344 107.923 33.8056 108.097C33.9707 107.806 35.1259 105.942 37.7377 105.456C40.3496 104.98 40.9806 103.078 40.9806 103.078L46.5236 98.039L52.8635 92.2042L60.5723 89.495L64.1748 88.6112C64.1748 88.6112 64.2427 88.8736 64.107 89.456C64.7764 89.408 66.2619 89.0682 67.8056 88.5242C68.427 88.2816 69.01 88.1843 69.3204 88.505C69.7768 88.9318 69.8446 89.9418 69.8734 90.5434C70.6209 90.3782 71.4849 89.6602 72.1774 89.728C73.2846 89.8445 74.2651 91.1456 75.3915 91.1456C76.8769 91.1456 77.5464 90.233 78.5857 89.5142C79.2072 89.0874 80.1 88.5542 80.6049 88.1939C81.8088 87.3101 94.5467 83.417 94.5467 83.417L99.0126 83.7082L99.7313 88.5043L99.3473 101.042C99.3 101.087 99.2526 101.135 99.2046 101.18L78.8987 111.786L50.7515 116.1C44.4464 115.07 38.3619 112.977 32.7572 109.911L32.6132 109.271V109.271L32.6113 109.272Z" fill="#D8C173"/>
<path fill-rule="evenodd" clip-rule="evenodd" d="M22.0703 102.349C22.4703 101.513 22.83 100.813 22.8934 100.563C22.9433 101.068 23.0348 102.174 23.2191 103.35C22.8321 103.021 22.4492 102.688 22.0703 102.349V102.349Z" fill="#F1D789"/>
<path fill-rule="evenodd" clip-rule="evenodd" d="M42.6314 114.148L46.2718 113.136L46.5822 113.233C46.5822 113.233 46.7473 113.331 46.7473 113.66C47.2036 113.398 47.5921 113.446 47.8737 113.272C48.019 113.583 48.1642 114.612 48.8055 114.738C49.475 114.884 50.1937 114.447 50.922 113.894C51.6401 113.321 52.458 112.602 53.0769 112.311C53.3039 112.729 53.5051 113.16 53.6791 113.602C54.4945 112.952 55.9121 110.311 57.9313 110.359C58.5149 108.98 59.4899 107.802 60.7358 106.971C62.6097 105.699 63.7841 105.602 65.2503 105.718C65.8327 104.962 66.5503 104.32 67.3668 103.825C67.6094 103.923 68.2794 104.33 69.1146 103.942C69.9594 103.554 70.9105 102.049 72.163 101.855C72.8379 101.762 73.5241 101.906 74.1047 102.262C74.1047 102.262 77.7527 98.6406 80.2698 97.4368C80.1726 97.1456 79.9786 96.0486 82.9297 93.6211C83.0948 93.767 82.9783 94.1747 83.0948 94.1971C83.1428 94.1971 83.8628 93.8867 84.7742 93.1872C85.9006 92.343 87.2497 91.4592 88.065 91.2166C89.601 90.7603 91.2305 91.6921 91.2305 91.6921C91.369 91.595 91.5234 91.5226 91.6868 91.4784C92.0746 91.4105 92.3562 91.3619 92.57 91.2864C92.5508 91.7913 92.8324 92.6553 92.57 93.4029C92.8739 93.5738 93.1959 93.7105 93.53 93.8105C93.3655 94.1696 93.0058 95.0822 92.4042 95.5193C92.9086 95.7619 92.9764 96.0435 93.6951 96.2873C93.4039 96.695 92.9271 97.3945 92.7146 97.8233C92.5009 98.2797 91.7335 100.173 91.3937 100.891C91.0346 101.61 90.5495 102.93 90.3159 103.195C90.0823 103.46 89.2382 104.583 88.5879 105.136C89.1639 104.922 91.5204 104.204 92.5201 103.932C92.2225 104.369 90.714 106.607 89.2638 108.759C75.2168 117.178 58.226 119.145 42.627 114.158L42.6314 114.148Z" fill="#E0CD81"/>
<path fill-rule="evenodd" clip-rule="evenodd" d="M31.1036 50.7379C31.1036 50.7379 30.2594 50.7379 30.0943 50.8544C29.9292 50.9709 30.9391 51.2141 31.2495 51.3306C31.5599 51.4471 32.23 51.9808 32.4047 52.4083C32.5698 52.816 38.4725 55.1943 38.4725 55.1943L42.6472 54.9805L44.0866 52.992L41.3487 50.5939L43.2687 44.9338L40.7253 45.3415L34.6088 48.9895L31.5407 50.1645L31.1036 50.7379V50.7379Z" fill="#DFC57C"/>
<path fill-rule="evenodd" clip-rule="evenodd" d="M40.2726 52.6118C40.3954 52.8107 40.6149 52.929 40.8486 52.9222C41.7126 52.9222 42.5081 53.136 42.8383 53.5725C43.3919 54.272 44.926 56.505 44.926 56.505L48.5958 57.8253L48.8326 53.504L44.823 50.7181L40.2598 52.3974V52.6112H40.27L40.2726 52.6118Z" fill="#E5CC7C"/>
<path fill-rule="evenodd" clip-rule="evenodd" d="M39.5511 54.2137C39.5511 54.2137 40.2205 54.2624 41.0653 53.9513C41.9101 53.6403 43.2983 52.9709 43.9005 53.2333C44.7447 53.5923 44.57 54.7187 45.4832 55.7293C46.0362 56.3507 47.0461 56.3315 47.6189 57.0016C48.1917 57.6717 50.1623 57.3606 50.1623 57.3606L50.9098 61.3926L47.9101 65.2377L46.929 70.0141H42.8727L39.1671 68.544L37.3418 64.128L38.2544 59.6621L39.5511 54.2137V54.2137Z" fill="#D2C281"/>
<path fill-rule="evenodd" clip-rule="evenodd" d="M47.3992 54.4077C47.4998 54.4387 47.6043 54.4551 47.7096 54.4563C47.5931 54.5536 47.3499 54.7667 47.4472 55.3203C47.5445 55.8739 47.8549 56.5728 47.5931 56.9997C47.8021 57.2282 47.9579 57.5 48.0494 57.7958C48.2146 58.272 48.2632 58.7085 49.3403 58.7769C49.1849 58.8726 49.0415 58.9867 48.9134 59.1168C48.9134 59.1168 49.661 59.767 50.0398 60.3686C50.4277 60.352 51.4568 60.032 51.4568 60.032L51.6706 60.1779L52.1269 59.9859C52.1269 59.9859 51.7 59.8208 52.0104 58.7821C52.3016 57.8694 52.564 57.9181 52.5864 57.8502C52.6088 57.7824 52.8002 56.8211 52.8002 56.4326C52.9454 55.9283 53.0619 54.3942 53.0619 54.3942L52.7515 51.0061L51.0043 49.9475L49.5835 48.576L48.2434 51.1001L47.3608 51.9801L47.293 54.1645L47.3992 54.4077V54.4077Z" fill="#E2C270"/>
<path fill-rule="evenodd" clip-rule="evenodd" d="M51.6016 51.5731C51.6016 51.5731 51.912 52.4563 52.0291 53.136C52.0704 53.0039 52.0932 52.8667 52.0969 52.7283C52.0969 52.7283 52.3395 54.0685 52.3875 54.6221C52.4848 54.6022 52.5795 54.5734 52.6012 54.6701C52.623 54.7667 52.8444 55.8451 52.7932 56.4467C53.1975 55.7797 53.757 55.2203 54.424 54.816C54.8124 54.5728 55.2688 54.311 55.7449 54.2912C56.4924 54.272 57.0358 54.7674 57.9292 54.7674C60.0841 54.7674 62.0361 53.1846 63.4729 52.6995C64.5308 52.3398 65.4435 52.0781 66.0841 51.495C66.3952 51.2333 66.9488 50.6509 67.4531 49.7862C68.1232 48.6342 68.822 47.6314 69.5216 47.5053C69.2051 47.5634 68.8831 47.5862 68.5616 47.5731C68.5616 47.5731 68.7753 47.3594 69.1376 47.0682C69.4998 46.777 69.9337 46.4179 70.5545 46.4179C71.6617 46.4179 72.2147 46.5824 72.8361 46.5824C73.4576 46.5632 73.8166 46.4179 73.8166 46.4179C73.8166 46.4179 74.4675 46.8742 75.9331 46.8742C77.3993 46.8934 78.3798 47.0195 79.1472 47.088C79.9145 47.1565 82.4867 46.8742 83.2246 46.896C83.7057 46.9145 84.1781 47.0301 84.6134 47.2358L82.2345 40.3238L73.6892 32.855L68.6019 36.457L60.776 44.2822L53.2035 47.088L51.6208 48.8646V51.5731H51.6016Z" fill="#CCB360"/>
<path fill-rule="evenodd" clip-rule="evenodd" d="M68.593 47.6115C68.593 47.6115 68.8068 47.3984 69.1652 47.1072C69.5236 46.816 69.962 46.4563 70.5828 46.4563C71.6894 46.4563 72.243 46.6214 72.8644 46.6214C73.4858 46.6022 73.8449 46.4563 73.8449 46.4563C73.8449 46.4563 74.4964 46.912 75.9614 46.912C77.4276 46.9312 78.4081 47.0573 79.1754 47.1251C79.9428 47.1929 82.515 46.912 83.2529 46.9331C83.7338 46.9512 84.2061 47.0668 84.641 47.273L83.5633 44.1561L82.3114 41.7779L78.7383 37.8649C78.7383 37.8649 74.4503 35.3408 74.4177 35.3216C74.3985 35.3024 72.9322 34.9139 72.9322 34.9139L69.0487 37.2634L65.5249 46.3801L65.457 48.3001L67.738 49.3779C68.3108 48.4179 68.9425 47.6499 69.5345 47.5526C69.0001 47.6109 68.5924 47.6109 68.5924 47.6109V47.6109L68.593 47.6115Z" fill="#D5B457"/>
<path fill-rule="evenodd" clip-rule="evenodd" d="M68.5433 48.2624C68.2035 48.2816 67.9225 48.2137 67.8445 47.9712C67.5533 47.1558 67.3203 47.0393 67.0765 47.0393C66.8326 47.0393 66.5037 47.5635 66.3085 47.6115C66.1133 47.6595 65.8816 47.0099 65.8816 47.0099L65.6678 46.9126C65.6678 46.9126 64.4153 47.728 63.5321 48.6893C62.6489 49.6505 61.2019 51.2819 60.5517 51.5725C59.9014 51.863 57.6678 51.9609 56.9037 52.1261C56.1395 52.2912 55.2921 52.8448 55.1757 52.9709C55.0592 53.0969 55.5161 53.2326 55.584 53.3587C55.6518 53.4752 54.8358 53.4265 54.768 53.5507C54.72 53.648 54.96 54.2009 55.079 54.4825C55.2873 54.379 55.5159 54.3226 55.7485 54.3174C56.496 54.2982 57.04 54.7936 57.9328 54.7936C60.0883 54.7936 62.0397 53.2109 63.4765 52.7251C64.535 52.3661 65.4477 52.1037 66.0883 51.5213C66.3987 51.2595 66.9523 50.6765 67.4573 49.8125C67.8259 49.2205 68.1856 48.6669 68.5453 48.2592V48.2592L68.5433 48.2624Z" fill="#D2B257"/>
<path fill-rule="evenodd" clip-rule="evenodd" d="M37.6316 96.311C37.6316 96.311 37.4396 95.5923 35.6604 93.7382C35.1555 93.2141 34.8451 92.7782 34.5052 92.4666C33.6604 91.6698 33.1651 91.4566 32.5635 91.0003C31.2432 90.0198 29.8064 90.0198 28.6998 88.816C27.5933 87.6122 26.3037 85.312 25.4076 82.9613C24.5245 80.6118 24.2812 79.8643 24.2812 79.7965C24.2812 79.7286 24.5245 79.2723 24.8349 79.3402C25.1453 79.408 25.1453 80.0096 25.2233 80.1555C25.378 80.3937 25.5534 80.6177 25.7475 80.825C26.2038 81.3498 26.854 81.977 27.1843 82.9126C27.1164 82.1165 26.8444 81.2333 26.8444 81.2333C26.8444 81.2333 28.5533 82.311 30.0093 83.4368C31.4755 84.5632 32.0771 84.9517 32.5052 85.6698C32.9334 86.3878 33.9421 88.2816 34.4253 88.8352C34.9085 89.3888 41.5292 91.4758 41.5292 91.4758L44.6787 93.824L46.2422 97.2512L45.0185 99.1712L42.6691 99.6762L38.8534 97.9674L37.6316 96.3104V96.3104V96.311Z" fill="#D2B159"/>
<path fill-rule="evenodd" clip-rule="evenodd" d="M29.1543 84.5049C29.1543 84.5049 29.9505 85.7766 31.8922 86.9805C33.6401 88.039 36.4068 89.0003 38.8733 89.5731C40.2903 89.9129 41.7079 90.1747 42.9796 90.1945C46.4068 90.2425 48.7658 89.2627 51.6887 88.9421C53.2714 88.7769 55.2132 88.6509 57.2324 88.1741C59.8244 87.5526 61.3585 86.8531 63.4461 85.8701C64.9604 85.1712 66.3492 84.647 67.4749 83.9769C69.0577 83.0451 70.2129 82.0064 71.553 81.696C71.3879 82.1523 71.2132 82.9677 69.8929 83.8125C70.5917 83.7926 71.553 83.7446 71.553 83.7446C71.553 83.7446 70.6212 84.2976 68.9802 85.5405C67.9703 86.3085 66.6308 87.6083 65.2618 88.4723C64.378 89.0259 63.4167 89.4323 62.7857 89.7638C61.2497 90.6086 60.6301 91.0355 59.6209 92.0678C59.9799 92.0486 60.0093 92.0678 60.0093 92.0678C60.0093 92.0678 58.737 92.2329 57.825 92.7181C57.633 92.7181 57.3002 92.6502 56.7178 92.8153C56.2615 92.9606 55.6593 93.2915 55.0385 93.4656C54.1546 93.728 53.8641 93.6115 53.8641 93.6115L54.0093 93.9027C54.0093 93.9027 52.8573 93.8829 52.4733 93.9219C52.5412 93.9411 52.522 93.9705 52.522 93.9705C52.4545 93.9818 52.3896 94.0048 52.33 94.0384C52.1452 94.1581 51.9419 94.2465 51.7284 94.3001C51.6119 94.3193 51.5146 94.3193 51.3687 94.3488C51.4173 94.4653 51.7962 95.1168 51.9709 95.5008C51.8257 95.5981 49.6407 97.2486 49.6407 97.2486C49.7085 97.3553 49.7639 97.4693 49.8058 97.5885C49.8737 97.8016 49.9031 98.1126 49.9709 98.2579C50.1354 98.5491 50.2327 98.5977 50.2327 98.5977C50.2327 98.5977 49.9709 98.6464 49.514 98.7629C49.1261 98.8601 48.65 99.0246 47.978 99.1219C47.7718 99.1487 47.5644 99.165 47.3565 99.1705C47.4538 99.3843 47.8807 100.2 47.0941 101.141C46.3076 102.083 46.065 102.22 45.8225 102.821C45.7004 102.729 45.5704 102.647 45.434 102.578C45.1722 102.461 44.8125 102.287 44.6865 102.054C44.613 102.365 44.5156 102.67 44.3953 102.966C44.1527 103.617 43.7937 104.258 43.7258 104.743C43.4634 104.452 42.9783 103.879 42.3082 103.996C41.6381 104.112 41.1044 105.025 40.9879 105.287C40.9879 105.122 40.8714 104.996 40.8426 105.19C40.8228 105.404 40.4541 107.636 38.3959 109.442C38.3767 108.986 38.3767 107.976 38.3281 107.646C38.1361 107.838 37.9012 108.122 36.5028 108.724C35.1338 109.325 35.3508 109.928 35.3508 109.928C35.3508 109.928 35.2343 108.968 35.9722 107.956C36.7197 106.947 37.1761 106.471 37.1761 106.394C37.164 106.315 37.1303 106.241 37.0788 106.18C36.9815 106.083 36.7876 105.966 36.7876 105.889C36.9041 105.841 38.0593 105.287 37.9914 104.141C37.9236 103.112 37.4871 102.578 37.1761 102.2C37.1281 102.151 37.633 101.792 37.5645 101.676C37.5159 101.608 36.8951 101.151 36.817 100.908C36.8354 100.762 36.868 100.619 36.9143 100.481C36.9821 100.267 37.0308 100.121 37.0116 99.9757C36.9629 99.7331 36.7005 99.063 36.6231 98.9952C36.6909 99.0144 37.1761 98.9952 37.1761 98.9952C37.1761 98.9952 36.7882 98.3737 36.7197 98.0825C36.6513 97.7913 36.506 97.024 36.4285 96.8787C36.5937 96.8979 37.0013 96.9267 37.0013 96.8787C37.0212 96.7328 36.6423 96.4902 36.8093 96.3027C36.9258 96.3219 37.1492 96.4192 37.3623 96.6912C37.2458 96.3801 37.0519 95.7785 36.6436 95.536C36.8356 95.4681 37.4884 95.2928 38.0612 95.6326C38.634 95.9725 38.8292 96.448 38.8292 96.448C38.8292 96.448 39.169 96.7104 39.6938 97.0989C40.2954 97.5744 41.0621 98.2509 42.2858 98.7296C42.5482 98.8755 43.2177 98.8755 43.7034 98.7782C43.9149 98.7278 44.1177 98.6461 44.305 98.5357C44.3726 98.4958 44.4443 98.4632 44.5188 98.4384C44.4144 98.2289 44.2944 98.0276 44.1597 97.8361C44.3249 97.8361 44.5188 97.856 44.5188 97.856C44.5188 97.856 44.6353 97.5936 44.1111 97.088C44.2276 96.9715 44.3735 96.896 44.3735 96.6995C44.2084 96.6803 43.9172 96.4377 43.8493 96.3405C43.946 96.2726 44.0919 96.0493 44.257 95.9814C44.1111 95.8649 43.7521 95.3792 43.5869 95.3312C43.7447 95.2726 43.8973 95.2011 44.0433 95.1174C44.0433 95.1174 43.2279 94.9037 42.9655 94.7289C42.7031 94.5369 42.3153 94.2048 42.0823 94.1075C41.8391 94.0102 41.4122 93.9622 41.2375 93.7677C41.402 93.8163 41.6644 93.7677 41.8589 93.7677C42.0042 93.7677 42.0727 93.7869 42.1207 93.7869C42.1015 93.719 42.1015 93.5731 42.4804 93.5251C42.6626 93.4976 42.8395 93.4419 43.0045 93.36C43.0045 93.36 42.6449 93.3408 42.2365 92.9523C41.8282 92.5638 41.489 92.2534 41.2561 92.2048C41.0135 92.1561 40.5572 92.3699 40.2756 92.3501C39.8871 92.3021 39.722 92.1075 39.722 92.1075C39.722 92.1075 38.4311 92.224 35.5671 90.4768C33.0909 88.9619 32.0132 87.6224 32.0132 87.6224C31.7814 87.5383 31.5575 87.4342 31.3437 87.3113C30.4119 86.8262 29.1204 85.8163 29.1594 84.4953V84.4953L29.1543 84.5049Z" fill="#C2A44D"/>
<path fill-rule="evenodd" clip-rule="evenodd" d="M64.8732 26.2329C65.0978 26.3059 65.2974 26.4405 65.4492 26.6214C65.9055 27.1456 66.1967 28.1357 65.158 29.1942C65.5657 29.3395 65.734 29.3862 66.0898 29.3395C65.7308 29.767 64.9154 30.6797 64.8668 31.4758C64.8182 32.1261 65.2258 32.3206 65.2258 32.3206C65.2258 32.3206 64.6044 33.0387 64.5756 34.2406C64.8691 33.9097 65.1902 33.6044 65.5356 33.328C66.2543 32.7552 67.2444 32.1049 67.9145 31.6973C67.9054 31.8681 67.9284 32.0392 67.9823 32.2016C67.9823 32.2016 69.2342 31.1725 70.2863 31.6294C70.7618 31.8432 70.5481 32.5126 70.5481 32.5126C70.5481 32.5126 71.199 32.2701 71.6553 32.7264C72.1116 33.1827 72.7567 34.3597 73.0876 34.816C73.2329 35.0297 73.6118 35.4374 73.9996 36.0685C74.5295 36.9519 74.9719 37.885 75.3206 38.8544C75.3398 38.3494 75.4658 37.5635 76.9033 38.0582C78.3401 38.5632 79.9708 39.6217 81.3398 41.7062C82.7087 43.7907 83.0479 46.144 83.7372 47.04C84.4361 47.904 85.1548 49.3408 85.2034 49.943C85.2521 50.5453 84.9897 52.4864 86.4265 57.7389C86.8342 56.1081 87.4556 52.4864 87.4556 52.4864L87.7954 49.2921L88.1839 39.4086L77.8633 30.8345L69.7954 24.9798L64.543 25.4848L64.8726 26.2323V26.2323L64.8732 26.2329Z" fill="#CAA13E"/>
<path fill-rule="evenodd" clip-rule="evenodd" d="M84.0482 40.9414C84.0482 40.9414 83.9023 39.9814 81.4754 38.3494C79.0479 36.7379 77.1548 36.7379 75.4076 35.369C74.0674 34.2912 72.6697 31.815 71.7596 30.9997C70.8757 30.1939 70.7305 27.8637 70.7305 27.8637L73.7109 25.3677L78.1436 18.9606L81.8908 14.8346L83.6866 17.3306L86.1826 20.2624L87.5708 26.1459L88.0757 34.7578L84.0437 40.9421L84.0482 40.9414Z" fill="#B59544"/>
<path fill-rule="evenodd" clip-rule="evenodd" d="M87.0497 51.264C87.1231 49.958 86.9618 48.6494 86.5735 47.4003C85.9335 45.4099 84.5351 41.8758 83.8855 40.5523C83.6231 39.0861 83.8177 38.9696 84.0993 38.8045C84.3809 38.6394 85.4394 38.0365 86.0193 35.9213C86.5991 33.8061 88.3981 33.737 88.3981 33.737L89.5047 32.9216L91.1847 37.1251L92.6503 40.9216L93.1066 43.8246L93.4465 46.3002L92.6503 51.5334L88.7188 55.0867L87.049 51.264V51.264H87.0497Z" fill="#C89D3A"/>
<path fill-rule="evenodd" clip-rule="evenodd" d="M32.1855 109.593V109.485C32.2672 109.434 32.3394 109.369 32.3987 109.293C32.4665 109.196 32.5158 109.08 32.5638 109.051C32.6611 109.002 33.1174 108.859 33.3599 108.905C33.6025 108.951 34.2438 109.215 34.5836 109.196C35.2825 109.177 36.0979 108.643 37.3894 108.886C39.3311 109.245 39.7875 110.565 40.9139 111.313C41.6819 111.837 42.4767 111.604 42.5932 111.604H42.855C42.9036 111.604 43.2627 111.196 43.4572 111.216C43.8457 111.235 43.8841 111.556 44.1267 111.575C44.6995 111.643 45.8067 111.284 46.3603 111.43C46.6934 111.534 46.9545 111.795 47.0591 112.128C47.1756 112.487 47.0783 112.943 46.7967 113.206C46.1951 113.759 45.6223 114.284 45.5059 114.742C45.654 114.855 45.7963 114.975 45.9321 115.103C41.1284 113.879 36.5065 112.028 32.1855 109.599V109.593Z" fill="#CEB052"/>
<path fill-rule="evenodd" clip-rule="evenodd" d="M83.8828 90.1946C83.8828 90.1946 85.3971 88.1754 85.9219 87.175C86.446 86.144 84.2617 73.088 84.2617 73.088L88.6502 58.7098L88.5331 54.0301C88.5331 54.0301 88.7468 49.7094 89.2518 47.8355C89.854 48.9133 91.7279 50.2144 92.1356 50.9037C92.3276 49.5827 92.9798 46.7968 92.8831 43.8259C93.2422 44.3789 94.1062 49.9424 94.1062 49.9424L94.9702 53.6896L96.0966 57.6704L97.3491 61.8746L98.0966 64.7776L98.5235 65.4765L98.8831 66.6995L99.223 68.0205L100.203 71.1174L100.779 73.6608L101.236 78.2726C101.335 78.6258 101.407 78.9861 101.45 79.3504C101.469 79.8554 101.382 80.1466 101.382 80.2342C101.382 80.3219 101.547 81.3408 101.479 82.1082C101.382 82.8762 101.382 83.4771 100.779 84.0282C100.177 84.5792 99.799 87.8726 99.799 87.8726L98.7212 87.1546C98.7212 87.1546 98.935 86.1734 98.43 85.2806C97.9251 84.3878 96.9446 84.2029 96.391 84.3488C95.838 84.4653 94.7315 84.6394 94.3718 84.9504C94.0319 85.2608 93.1974 86.2221 92.43 86.6592C91.47 87.2352 89.9059 87.2806 89.0713 87.4746C88.2265 87.6666 87.2947 88.2426 86.3135 88.9114C85.5443 89.4094 84.7321 89.8378 83.8867 90.1914V90.1914L83.8828 90.1946Z" fill="#CCA847"/>
<path fill-rule="evenodd" clip-rule="evenodd" d="M83.8828 111.408C83.8828 111.408 83.9468 111.45 84.0703 111.517C90.968 108.286 97.1483 103.705 102.246 98.0454C102.191 96.0806 102.118 94.0666 102.039 93.3203C101.874 91.7376 101.991 90.1261 101.942 89.1942C101.894 88.2624 101.37 84.4659 101.127 83.4854C100.865 82.505 100.359 82.0192 100.282 82.0192C100.214 82.039 99.806 83.8643 99.806 84.3232C99.806 84.7821 99.7087 85.8867 99.7087 86.1683C99.6409 86.1485 99.6121 85.9763 99.6121 85.9059C99.5148 86.1485 99.3983 86.576 99.3497 86.6246C99.3011 86.6733 99.4175 86.217 99.3497 86.1197C99.2819 86.0224 99.1577 86.071 99.1846 85.8285C99.1961 85.6846 99.2187 85.5419 99.2524 85.4016C99.2524 85.4016 98.9612 85.8285 98.7481 86.9158C98.5343 87.9936 98.5343 88.023 98.4569 88.1197C98.3891 88.2368 98.0006 88.6246 97.9807 88.7706C97.9615 89.0323 98.3404 89.2947 98.3692 89.44C98.3884 89.6832 98.0294 90.809 97.9129 91.36C97.7964 91.911 97.8451 92.9907 97.7209 93.5443C97.6236 94.0493 97.5289 94.3405 97.1967 94.5536C97.4393 94.6022 97.6723 94.6701 97.6723 94.6701C97.6723 94.6701 98.0121 96.1069 97.1481 97.3306C96.8377 97.7574 96.7603 97.952 96.43 98.3405C95.7791 99.0586 95.2742 99.8765 95.2255 100.408C95.1919 100.251 95.1693 100.092 95.1577 99.9322C95.1577 99.9322 94.1484 101.107 93.7209 101.777C93.1679 102.641 92.4006 102.593 92.1849 102.806C91.9692 103.02 91.9225 103.408 91.9929 103.719C91.8009 103.767 91.4399 103.836 91.1967 104.583C91.0803 104.971 90.7891 105.351 90.3327 105.612C89.8764 105.873 89.3228 105.952 89.0412 106.02C89.2838 106.088 89.3811 106.088 89.4975 106.165C89.3523 106.408 88.6822 106.787 87.9347 107.272C87.1871 107.729 86.8275 108.398 86.6431 108.835C86.4511 109.243 86.1676 109.505 85.7113 109.554C85.9033 109.67 86.1875 109.942 86.3327 110.029C86.119 110.078 85.7567 110.078 85.1097 110.632C84.43 111.195 84.1971 111.36 83.886 111.409V111.409L83.8828 111.408Z" fill="#C39D3C"/>
<path fill-rule="evenodd" clip-rule="evenodd" d="M70.3743 115.907C70.7461 115.647 71.1487 115.433 71.573 115.272C73.0873 114.67 74.6892 114.554 75.3202 114.36C75.9225 114.168 76.398 113.903 77.1455 113.757C77.1257 113.928 77.109 114.088 77.0911 114.239C74.8873 114.932 72.6431 115.489 70.3711 115.907H70.3743Z" fill="#D2BA6B"/>
<path fill-rule="evenodd" clip-rule="evenodd" d="M98.3043 76.0781C98.3043 76.0781 97.9939 77.7574 97.4403 78.816C96.8867 79.8745 96.2883 81.3401 96.2883 81.3401C96.2919 81.0099 96.331 80.681 96.4048 80.359C95.7059 80.7667 94.0067 81.7478 93.5248 82.1843C93.0684 82.592 92.3011 83.3107 92.1072 83.6505C92.5635 82.311 93.039 81.1072 93.1171 80.5536C92.4182 81.0585 89.1555 83.7478 87.4569 85.5245L82.1654 89.8061C81.5548 90.1355 80.9259 90.4299 80.2819 90.688C79.3699 91.0758 78.2921 91.4061 77.496 91.7171C77.7097 91.1443 78.0489 90.6387 78.5251 90.1536C79.03 89.6781 80.5443 88.0371 80.7772 87.2736C80.991 86.4774 81.0396 86.0019 80.758 85.3318C80.4956 85.3997 79.894 85.4291 79.4864 85.5456C79.0787 85.6621 78.6416 86.0985 78.6416 86.0985C78.6416 86.0985 78.952 84.3219 79.622 82.6425C79.1171 82.6617 78.2531 82.807 78.2531 82.807C78.2531 82.807 79.4569 80.7878 81.5171 79.3805C80.8862 79.5148 80.2688 79.7063 79.6726 79.9526C78.4688 80.4576 77.1484 81.2051 76.168 81.6128C76.7209 80.8448 80.6044 75.3024 82.9155 70.1369C85.2195 64.9817 86.0803 63.6614 86.5852 60.8947C86.847 59.5257 86.7772 57.5027 86.847 55.6909C86.9148 53.8944 87.1382 52.2829 86.9929 51.2051C87.5945 51.9526 89.8473 54.0595 89.9248 58.7686C89.9926 63.4771 87.7699 69.8368 85.4102 73.2633C85.9862 73.4285 87.4787 73.623 89.0121 70.9593C90.5456 68.2957 90.527 67.552 91.0806 66.4448C91.1484 66.9984 91.1286 67.1923 91.1286 67.1923C91.1286 67.1923 93.3622 64.4838 94.4201 61.0758C94.6339 62.5421 95.2649 63.8336 94.2742 66.5229C93.391 68.9497 92.2358 69.5424 92.2358 69.5424C92.2358 69.5424 92.8086 69.4451 93.6528 68.9401C93.7987 69.2992 93.7699 69.7081 94.0124 69.8528C94.255 69.9974 94.5852 70.2413 94.6339 70.4742C94.8956 70.0857 95.3033 69.5904 95.43 69.2217C95.3328 69.9897 95.2649 73.3478 95.622 75.0566C96.3702 74.9888 97.1369 74.9401 97.6611 73.5904C97.302 74.9113 97.302 75.7069 97.5446 76.8333C97.9427 76.5619 98.3017 76.0761 98.3017 76.0761V76.0761L98.3043 76.0781Z" fill="#C0993A"/>
<path fill-rule="evenodd" clip-rule="evenodd" d="M73.0783 22.5632C73.0783 22.5632 72.3308 22.8736 71.0591 22.8736C69.9525 22.8736 70.2629 22.4467 68.5349 22.4467C65.8751 22.4467 56.5836 23.9827 54.9522 23.961C53.8937 23.9418 58.5247 24.4173 58.5247 24.4173L70.3602 24.5824L72.7385 24.3904L73.6223 22.592L73.0783 22.5632Z" fill="#A88F33"/>
<path fill-rule="evenodd" clip-rule="evenodd" d="M42.3878 45.6992C42.3878 45.6992 40.8729 46.8544 40.2322 47.7382C39.5916 48.6221 39.2518 49.2038 38.5234 49.9225C38.6944 49.9291 38.8652 49.9061 39.0284 49.8547C39.0284 49.8547 39.0284 50.0467 38.9119 50.0973C39.1158 50.0745 39.319 50.145 39.4649 50.2893C39.2511 50.4057 38.6687 50.9888 39.125 51.6781C39.4649 52.2022 40.1836 52.2502 40.1836 52.2502C40.1836 52.2502 40.0185 52.7264 40.7078 52.6777C42.1932 52.6099 43.8534 51.959 44.6201 52.1241C45.3881 52.3161 45.8246 52.3865 46.3679 53.3286C46.9439 54.2605 47.4457 54.4064 47.4457 54.4064C47.4457 54.4064 47.7855 53.5417 47.7081 52.2509C47.9867 51.555 48.1412 50.8157 48.1644 50.0665L47.6594 46.3481L45.4559 43.5616L42.6015 45.1443L42.3878 45.6973V45.6992Z" fill="#E3C571"/>
<path fill-rule="evenodd" clip-rule="evenodd" d="M45.0977 45.1456C45.0977 45.1456 45.3114 45.6505 46.2049 45.6985C46.1076 45.9123 46.1076 45.9417 46.137 46.1062C46.1562 46.2713 46.185 46.5139 46.185 46.5139C46.2834 46.4663 46.3723 46.4013 46.4474 46.3219C46.4961 46.5357 46.3988 46.8749 46.4474 47.1181C46.4774 47.266 46.5263 47.4094 46.5927 47.5449C46.6069 47.5117 46.6231 47.4795 46.6413 47.4483C46.6605 47.3997 46.8333 47.9725 47.3114 48.4083C47.311 48.3413 47.3275 48.2752 47.3594 48.2163C47.3667 48.338 47.407 48.4555 47.4759 48.5561C47.4401 48.5391 47.4075 48.5162 47.3793 48.4883C47.3793 48.4883 47.4273 50.0243 47.6897 50.8185C47.7335 50.7672 47.7725 50.7119 47.8061 50.6534C47.8061 50.6054 47.7869 51.0809 47.7383 51.4214C47.6705 51.7613 47.7191 52.2368 47.7191 52.2368C47.8941 52.099 48.0865 51.9847 48.2913 51.8969C48.5825 51.7798 49.0593 51.4208 49.3498 50.6246C49.5184 50.1737 49.6483 49.7093 49.7383 49.2365C49.8322 49.4172 49.897 49.6116 49.9303 49.8125C49.9501 50.055 50.4065 49.9289 50.4065 49.9289L50.5037 48.8704L51.0797 46.4723L51.6039 44.9869L54.1281 41.0553L58.6887 37.543L62.6695 38.4557L66.0282 33.8925L60.242 30.4166L54.7661 30.9894L49.7965 37.8726L45.8164 44.1158L45.0977 45.1449V45.1449L45.0977 45.1456Z" fill="#D8B65B"/>
<path fill-rule="evenodd" clip-rule="evenodd" d="M73.7775 35.1847C73.7775 35.1847 73.4377 35.2525 72.4572 35.7607C71.4767 36.2688 70.797 36.4301 70.4182 37.1776C70.0393 37.9251 70.0105 38.5178 70.0105 38.5178C70.0105 38.5178 70.6806 38.2266 71.069 38.1293C71.4767 38.0327 71.933 38.0615 71.8844 38.2266C71.8377 38.3398 71.7729 38.4446 71.6924 38.537C71.6924 38.537 72.4604 38.5178 72.4399 38.8967C72.4194 39.2755 72.2946 39.6928 72.1494 39.8771C72.0034 40.0691 71.4018 40.3533 71.334 40.5767C71.1689 41.033 71.4018 41.0522 71.3142 41.4208C71.2463 41.7805 70.9263 42.4794 69.8774 43.7024C68.7996 44.9261 68.3414 45.7901 68.3414 45.7901C68.3414 45.7901 67.8172 44.8096 67.5452 43.9648C67.3532 44.0615 66.3222 44.6343 66.3222 44.6343L63.9337 36.3143L63.9817 35.7607C63.9817 35.7607 64.1954 35.4989 64.2441 35.0131C63.885 34.8967 63.8364 34.7994 63.3602 34.3437C62.8841 33.888 62.4962 33.3338 61.7007 32.9549C61.5842 32.7411 61.4383 32.4506 60.8559 32.3335C60.2735 32.2163 59.9241 32.1203 59.9241 32.1203C59.9241 32.1203 60.2345 32.0032 60.3804 31.7607C60.0207 31.8093 59.7302 31.9258 58.9436 31.9066C58.1474 31.8867 58.0598 31.8579 57.6233 31.9258C57.1868 31.9936 56.6633 32.1882 56.4681 31.5181C56.2543 31.353 55.798 31.4989 55.4095 32.0711C55.021 32.6432 54.8854 33.1002 54.1378 33.3235C54.0853 33.653 53.9699 33.9694 53.798 34.2554C53.5842 34.6151 53.2444 34.9741 52.7881 35.5079C52.0694 36.3527 52.1858 37.7408 51.0402 38.7994C49.885 39.8573 51.2322 35.8669 51.2322 35.8669L53.0767 31.4509L58.3292 26.3149L66.4847 25.7619L67.2809 29.9859L71.2617 31.3549L73.7762 35.1898V35.1898L73.7775 35.1847Z" fill="#D3AE4D"/>
<path fill-rule="evenodd" clip-rule="evenodd" d="M75.0683 36.1165L71.6411 31.175L69.243 29.3299C69.243 29.3299 67.5342 26.185 67.4177 26.0877C67.3205 26.0198 65.7089 25.8451 64.6798 25.7773L64.8718 26.2528C65.0964 26.3258 65.296 26.4604 65.4478 26.6413C65.9041 27.1654 66.1953 28.1555 65.1566 29.2141C65.5643 29.3594 65.7326 29.4061 66.0885 29.3594C65.7294 29.7869 64.9141 30.6995 64.8654 31.4957C64.8168 32.1459 65.2245 32.3398 65.2245 32.3398C65.2245 32.3398 64.603 33.0586 64.5742 34.2598C64.8677 33.9289 65.1889 33.6236 65.5342 33.3472C66.2529 32.7712 67.243 32.1235 67.9131 31.7158C67.904 31.8869 67.927 32.0582 67.9809 32.2208C67.9809 32.2208 69.2328 31.1917 70.2849 31.648C70.7605 31.8618 70.5467 32.5318 70.5467 32.5318C70.5467 32.5318 71.1976 32.2893 71.6539 32.7456C72.1102 33.2019 72.7605 34.3763 73.0907 34.8333C73.236 35.047 73.6149 35.4547 74.0027 36.0851C74.5327 36.9688 74.9751 37.902 75.3237 38.8717C75.3429 38.4832 75.4209 37.9398 76.0917 37.9398L75.0721 36.1146L75.0683 36.1165Z" fill="#CAA13E"/>
<path fill-rule="evenodd" clip-rule="evenodd" d="M23.6898 50.1555C23.6898 50.1555 23.4473 49.5533 23.6898 48.3789C23.9324 47.2045 24.3113 46.6509 24.4374 44.9229C24.5634 43.1949 25.6898 41.0394 25.6898 41.0394L28.806 39.6224L31.0102 40.224L31.6604 43.1757L28.8738 44.7117C28.8738 44.7117 28.7286 45.3619 27.942 45.8861C27.1554 46.4102 26.0681 46.8179 25.8063 47.3523C25.6498 47.6796 25.5356 48.0254 25.4665 48.3814C25.4665 48.3814 24.6703 48.2163 24.1948 48.7405C23.6898 49.2749 23.709 49.7504 23.6898 50.1581V50.1555Z" fill="#F4EFC8"/>
<path fill-rule="evenodd" clip-rule="evenodd" d="M29.9806 49.369C29.9806 49.369 29.7182 49.5341 29.5243 49.945C29.3323 49.6346 28.8734 47.7894 28.8542 46.1293C28.835 44.4691 28.7358 44.0576 29.1198 43.4854C29.5038 42.9133 31.0097 42.3104 30.7959 41.28C30.5822 40.2995 29.6887 39.8918 28.5918 40.1734C27.8238 40.3654 27.2523 41.9987 26.4561 42.8141C25.8539 43.4355 25.1358 43.3382 24.9419 43.6781C24.6795 44.1344 24.922 44.5907 24.8446 44.8819C24.8247 44.9792 24.5822 45.5034 24.1451 46.1344C23.2619 47.4061 21.7668 49.2026 21.5723 50.8141C21.6401 49.9014 21.5921 49.8822 21.8347 48.8723L21.6887 48.6298L22.6487 45.4842L23.2702 42.8922L24.659 38.5517L27.1051 34.1152L29.4839 31.4547L31.9595 31.6198L32.2507 35.3382L33.6683 42.3194L36.6487 45.9891L31.8718 49.2038L29.9787 49.369V49.369H29.9806Z" fill="#EBCC73"/>
<path fill-rule="evenodd" clip-rule="evenodd" d="M31.4672 50.688C31.4672 50.688 31.0595 50.7853 30.9136 50.7078C30.7676 50.6304 30.623 50.5427 30.671 50.4454C30.719 50.3482 30.9814 50.1837 30.9814 50.1056C30.9926 49.9589 30.8851 49.8299 30.7388 49.8144C30.5155 49.7856 30.4476 49.9309 30.4476 49.9309C30.4476 49.9309 30.2339 49.7664 30.0598 49.7389C30.1628 49.7263 30.2664 49.7197 30.3702 49.719C30.1019 49.5975 29.8173 49.5158 29.5254 49.4765C29.768 49.3312 30.2441 48.9037 30.5545 48.9037C30.8649 48.9037 31.0595 48.8557 31.0108 48.6906C30.9622 48.5254 30.7196 48.2829 30.4579 48.1856C30.5545 48.0691 30.623 47.8944 30.39 47.4176C30.1468 46.9421 30.2441 46.6214 30.3222 46.5056C30.39 46.3597 30.6326 46.0979 30.7491 45.9328C30.8656 45.7677 30.9628 45.5443 31.1568 45.4278C31.254 45.36 31.5644 45.2358 31.8755 45.1174C32.2153 45.001 32.4969 44.855 32.6908 45.001C32.9046 45.1462 32.8073 45.3408 32.8073 45.3408C32.8073 45.3408 33.4774 45.0976 34.079 45.4086C34.6812 45.6992 36.1475 45.8842 36.1475 45.8842L36.6729 46.9427L33.1971 49.9232L31.7603 50.6419L31.4691 50.6899V50.6899L31.4672 50.688Z" fill="#E5C66B"/>
<path fill-rule="evenodd" clip-rule="evenodd" d="M36.2903 45.8157C36.2903 45.8157 35.2125 46.5344 34.97 46.7962C35.1153 46.816 35.3578 46.9133 35.2605 47.0586C35.1441 47.2038 34.4452 47.7088 34.0567 48.185C33.649 48.6605 33.2605 49.2627 33.1249 49.5539C32.9796 49.8157 31.8724 50.583 31.4941 50.6797C32.2903 50.6797 33.8922 49.6992 34.4938 49.6992C34.4746 49.9904 34.6589 50.3206 34.9988 50.3494C35.3386 50.3782 36.3191 50.5632 37.6394 49.7478C38.9597 48.9517 38.5233 48.359 39.0762 47.9712C40.1348 47.2717 40.5617 46.6502 41.1441 46.2624C41.7265 45.8746 42.0279 45.7862 42.0279 45.7862C42.0279 45.7862 42.0471 45.495 42.2199 45.5245C42.3163 45.5355 42.3986 45.5991 42.4337 45.6896C42.4337 45.6896 43.4436 44.9709 44.7377 44.777C44.7075 44.7635 44.6833 44.7393 44.6698 44.7091C44.6698 44.7091 44.7665 44.6605 44.7863 44.6118C44.7863 44.6118 44.8541 44.5146 44.9028 44.5632C44.9514 44.6118 45.0193 44.9709 45.1165 45.1168C45.3303 45.0195 45.738 44.1069 45.738 44.1069L46.7191 41.3011V38.7379L45.9511 38.8838L40.1911 41.3299L36.6954 44.9517L36.2877 45.8157H36.2903Z" fill="#E6BD62"/>
<path fill-rule="evenodd" clip-rule="evenodd" d="M52.874 33.2429C53.1856 33.1673 53.4843 33.0461 53.7604 32.8832C53.6439 33.1942 53.6439 33.5341 53.139 34.272C52.634 35.0099 52.6148 35.1168 52.2071 35.8835C51.7994 36.6797 51.7508 37.8253 51.3623 38.3296C51.5364 38.245 51.7232 38.1894 51.9153 38.1651C51.9153 38.1651 51.5274 38.505 51.3623 38.864C51.1972 39.223 50.906 39.9706 50.1879 40.4275C49.4698 40.8845 48.5566 41.175 47.5761 42.2528C46.595 43.3107 45.5857 44.6509 45.0801 45.1328C45.3425 44.6765 45.7015 43.7638 45.7988 43.1622C45.8961 42.5606 45.779 41.8413 45.9441 41.0458C46.1092 40.2502 46.1092 39.6768 46.9041 38.288C47.699 36.8992 49.0596 32.0742 49.0596 32.0742L51.9914 31.1424L52.8753 33.2397V33.2397L52.874 33.2429Z" fill="#B6933F"/>
<path fill-rule="evenodd" clip-rule="evenodd" d="M50.7564 31.4662C50.7564 31.4662 49.8732 32.7379 49.6307 33.8643C49.3881 34.9907 49.6108 34.8934 49.4656 35.447C49.3787 35.7846 49.3787 36.1386 49.4656 36.4762C49.7714 35.9834 50.1902 35.5705 50.6873 35.2717C51.5225 34.7674 52.2022 34.4077 52.6073 33.9808C53.015 33.5245 53.3548 32.777 54.238 32.2042C53.879 32.1555 53.374 31.9904 53.278 32.0122C53.6377 31.6045 54.7148 30.983 55.8022 30.2355C56.88 29.4675 56.8121 29.1578 58.56 28.391C57.9872 28.4883 57.7152 28.3424 57.239 28.391C57.431 27.9834 58.103 27.7888 58.775 27.1194C59.447 26.4499 58.3481 25.4592 58.3481 25.4592L53.2281 28.5562L50.7526 31.4688L50.7564 31.4662Z" fill="#C49937"/>
<path fill-rule="evenodd" clip-rule="evenodd" d="M36.8633 29.1552L36.9798 28.2233L38.446 25.8739L39.9801 21.7478V16.1069L39.8636 12.8448L40.1062 10.7085L40.2905 10.0294L40.485 9.76703L41.7369 10.4173L43.4655 12.7667L43.6306 17.3011L41.9506 24.4563L37.1545 29.6896L36.8633 29.1552V29.1552Z" fill="#DFC068"/>
<path fill-rule="evenodd" clip-rule="evenodd" d="M40.6806 9.50465C40.6806 9.50465 39.9126 9.52449 39.7487 12.7187C39.5849 15.913 39.5055 17.5923 39.389 19.1751C39.2726 20.7578 39.0012 21.7184 38.8649 22.6509C38.7286 23.5834 38.6511 24.8544 38.2146 25.6314C38.0226 25.9904 37.6124 27.1168 36.6511 27.9616C35.5734 28.8935 33.9631 29.5443 33.7193 29.593C33.2918 29.6896 31.1266 29.9034 30.2434 30.3891C29.933 30.5543 29.3986 30.7482 28.8066 31.3018C27.6316 32.3597 26.0687 34.2528 24.9423 36.5344C23.2143 39.9424 21.4863 49.5635 21.4863 49.5635L21.8748 48.9133C21.8748 48.9133 21.9234 48.0493 22.7874 46.5344C23.6322 45.0202 23.3897 43.321 24.5641 40.4179C25.0204 39.3114 25.5932 37.8746 26.2921 36.6509C27.3993 34.6605 28.7388 32.9517 30.0886 32.0199C32.2921 30.5056 34.7196 30.1754 34.7196 30.1754L37.3314 28.4474C37.3314 28.4474 37.7878 27.5642 38.39 26.5543C39.2342 25.1373 40.31 23.5546 40.5449 21.2538C40.9046 17.8458 40.0399 15.6128 40.0886 13.5936C40.1372 11.5744 40.1564 10.089 40.5647 9.72929C40.973 9.36961 40.6812 9.50593 40.6812 9.50593V9.50593L40.6806 9.50465Z" fill="#A88F33"/>
<path fill-rule="evenodd" clip-rule="evenodd" d="M40.679 24.7475C40.679 24.7475 41.831 21.9123 42.3584 19.3978C42.4556 18.8928 42.6496 18.3885 42.6982 17.9808C42.9408 15.6019 43.0086 14.6214 42.6982 13.3203C42.4556 12.3603 41.5238 11.495 41.038 10.8243C40.5625 10.1248 40.3392 9.86432 40.4364 9.71712C40.5337 9.56992 40.912 9.32928 41.2806 9.35808C42.0725 9.38113 42.8203 9.72817 43.3491 10.3181C44.0966 11.1821 44.6886 14.1146 44.6886 14.1146L45.3113 17.984L46.894 22.8576L40.6803 24.7514V24.7514L40.679 24.7475Z" fill="#C99E3D"/>
<path fill-rule="evenodd" clip-rule="evenodd" d="M51.5054 21.7965C51.5054 21.7965 51.2917 21.8931 50.9038 21.7965C50.9376 22.1196 50.7876 22.4345 50.5154 22.6118C50.1077 22.4467 46.2914 22.777 46.2914 22.777C46.2914 22.777 44.5147 22.4659 43.9611 20.1165C43.5733 18.553 44.2523 16.3981 44.029 14.9805C43.6891 12.8928 43.2136 12.4845 43.165 11.8349C43.1163 11.1853 43.0677 11.0195 43.0677 10.6118C42.8539 10.5632 42.7278 10.4954 42.5147 10.4954C42.4661 10.3034 42.5627 10.1357 42.3496 9.79584C42.4661 9.84448 43.2622 9.94176 44.1941 10.825C44.9621 11.5437 44.9621 11.8054 45.0779 11.9514C45.2232 12.0966 46.3982 13.1034 46.9032 14.1069C47.4082 15.1104 48.3886 18.3104 48.612 18.8346C48.6798 19.0483 48.8258 19.2621 49.188 19.7472C49.7512 20.4467 50.5762 21.6032 51.508 21.7952V21.7952L51.5054 21.7965Z" fill="#B58634"/>
<path fill-rule="evenodd" clip-rule="evenodd" d="M45.2148 12C45.803 12.9501 46.3314 13.9359 46.7969 14.9517C47.3697 16.2426 47.7096 17.3011 48.4283 18.1651C48.0398 17.0394 47.3505 14.8256 46.9428 14.039C46.4865 13.207 45.5547 12.311 45.2148 12.0006V12.0006V12Z" fill="#A88F33"/>
<path fill-rule="evenodd" clip-rule="evenodd" d="M38.6122 27.9616C38.6122 27.9616 37.6317 28.2042 35.8064 29.1654C35.2042 29.4758 34.632 29.7376 34.0784 29.9808C32.6403 30.631 31.0979 31.232 29.8743 31.5635C29.9715 31.68 30.0195 31.728 30.0195 31.728C30.0195 31.728 30.0195 32.2042 30.2819 32.4755C30.1367 32.6214 28.1943 33.9418 28.7677 38.359C29.1555 38.2138 29.6119 38.0192 29.6797 38.0192C29.7968 38.039 29.8256 38.359 29.9709 38.359C30.1162 38.359 30.5923 38.167 31.0973 37.5142C31.0781 37.7766 30.7869 40.4173 32.3498 42.1939C32.641 41.8541 33.3789 40.7277 33.3789 40.7277L33.3981 40.3686C33.3981 40.3686 33.4659 39.1162 33.8743 37.9706C34.2826 36.825 35.0781 35.9802 35.0781 35.9802L39.2323 30.048L38.6109 27.961V27.961L38.6122 27.9616Z" fill="#E6C367"/>
<path fill-rule="evenodd" clip-rule="evenodd" d="M34.7282 36.672C34.538 36.8064 34.3285 36.9111 34.1068 36.9824C34.0389 36.7398 33.9417 35.9046 34.5145 35.0893C35.1845 34.1082 36.6501 32.8365 37.0578 31.8253C37.3202 31.1744 37.2037 29.5437 39.534 27.456C41.8642 25.3683 42.7762 24.6502 42.7762 24.6502L46.5433 22.7571L51.1743 24.5824L48.8735 33.6L47.0873 37.824L39.9833 36.4845L34.7276 36.672V36.672H34.7282Z" fill="#DCBA5A"/>
<path fill-rule="evenodd" clip-rule="evenodd" d="M37.4395 34.2234L38.3233 33.1168V32.3302C38.3233 32.3302 39.3038 32.0678 40.3617 30.9901C41.4196 29.9123 42.8859 27.8445 44.1774 27.9706C45.4689 28.1165 45.595 30.7763 45.6436 31.5245C45.6923 32.2726 45.8574 33.9706 46.1191 34.8838C46.4103 35.7965 42.9735 39.2525 42.9735 39.2525L40.6395 41.0291L37.4395 34.2234V34.2234Z" fill="#E9CE77"/>
<path fill-rule="evenodd" clip-rule="evenodd" d="M40.1738 43.4368C40.1738 43.4368 40.8925 42.3104 40.3658 42.0678C40.6762 41.369 41.249 40.631 41.249 40.631C41.249 40.631 41.6567 39.6218 42.977 38.3789C44.2973 37.136 45.1133 36.3104 45.3271 35.4758C45.4589 34.9319 45.5306 34.3752 45.5409 33.8157C45.6836 33.9323 45.8363 34.0362 45.9972 34.1261C46.2109 34.2234 47.2202 35.0579 47.0749 36.7379C46.9297 38.4179 46.3069 39.1168 46.3069 39.1168C46.3069 39.1168 45.7053 39.7184 45.2785 40.0294C44.8215 40.3398 44.657 40.6989 43.8897 40.7283C43.9685 40.6656 44.0572 40.6163 44.1521 40.5824C44.1521 40.5824 43.3559 40.4858 42.9284 40.8736C42.5009 41.2614 41.5921 42.4563 41.1357 42.816C40.6794 43.1072 40.1757 43.4374 40.1757 43.4374V43.4374L40.1738 43.4368Z" fill="#CDAE50"/>
<path fill-rule="evenodd" clip-rule="evenodd" d="M72.4571 24.5529C71.31 24.1349 70.1046 23.8991 68.8846 23.8541C66.8455 23.7862 63.8651 23.9027 60.9428 23.9219C57.7972 23.9411 54.9428 22.8441 50.9819 22.6502C50.3316 22.2617 48.6779 20.5626 43.5156 24.1645C43.826 24.1453 47.2635 23.3683 48.4571 24.864C49.6609 26.3494 49.3211 28.8736 49.1566 29.4752C48.8455 30.8154 47.8356 32.7667 47.4286 34.1357C47.0215 35.5046 47.1175 36.224 46.8263 37.184C46.5351 38.144 45.8945 38.6208 46.2727 39.7274C46.7777 39.417 47.0407 39.417 47.8843 37.5238C48.7278 35.6307 48.5543 34.281 49.9527 32.679C51.3217 31.0675 53.6007 28.8634 54.4673 28.3098C55.3339 27.7562 62.2145 24.1837 69.419 27.5917C71.1566 27.4074 72.4577 24.5523 72.4577 24.5523V24.5523L72.4571 24.5529Z" fill="#D2A83E"/>
<path fill-rule="evenodd" clip-rule="evenodd" d="M46.4168 23.232C46.4096 23.159 46.3935 23.0872 46.3688 23.0182C46.3014 22.8762 46.2129 22.7453 46.1064 22.6297C46.1064 22.6297 44.3976 22.3193 43.5336 22.416C42.0187 22.5811 40.6497 24.455 40.0091 25.4163C39.3684 26.3776 38.5723 27.8624 37.7083 28.6297C37.7177 28.555 37.7005 28.4793 37.6596 28.416C37.6596 28.416 37.7083 28.4838 37.6116 28.5811C37.515 28.6784 37.5144 28.7264 37.563 28.7731L37.7089 28.9184C37.7569 28.9184 39.0971 28.3161 40.9224 26.6144C42.8641 24.8377 44.3496 23.9264 45.1265 23.6141C45.5409 23.438 45.974 23.3098 46.4174 23.232V23.232H46.4168Z" fill="#C29637"/>
<path fill-rule="evenodd" clip-rule="evenodd" d="M79.5637 15.9322C79.5637 15.9322 79.2527 16.32 78.8642 16.7475C78.0002 17.6602 76.8738 18.6886 75.9125 19.7472C75.0005 20.7571 73.9714 21.5437 72.8156 22.864C71.6597 24.1843 70.3196 25.6499 69.9804 26.0774C69.67 26.505 69.4274 27.2038 69.4274 27.5629C69.2623 27.4464 69.0684 27.3203 69.0684 27.3203C69.15 27.4727 69.2476 27.6161 69.3596 27.7478C69.6021 28.0877 69.9804 28.5158 70.1749 28.777C70.4136 29.1094 70.5849 29.4853 70.6792 29.8835C70.7957 29.9027 71.5432 30.0486 72.4757 28.5146C73.4082 26.9805 74.6306 25.3011 74.6306 25.3011L76.5724 22.4173L77.796 19.9712L79.332 17.2333L79.5656 15.9322V15.9322H79.5637Z" fill="#AC8132"/>
<path fill-rule="evenodd" clip-rule="evenodd" d="M81.5541 13.9712C81.5541 13.9712 80.379 14.9312 79.9227 15.5072C79.4664 16.0832 78.3867 17.5949 78.3867 17.5949L78.7752 17.5462L80.7464 15.799L81.5144 14.4301L81.5534 13.9738L81.5541 13.9712Z" fill="#A88F33"/>
<path fill-rule="evenodd" clip-rule="evenodd" d="M81.1946 91.1264C81.1946 91.1264 81.1754 90.3302 81.6221 89.8547C82.0784 89.3786 83.2336 88.6797 84.36 86.0582C85.4864 83.4368 85.6119 82.8448 85.6119 82.8448C85.6119 82.8448 83.5927 84.5728 82.3479 84.9805C82.6391 84.3782 82.8042 83.9514 82.9501 83.6403C82.785 83.495 82.0861 83.3299 82.0183 83.2525C82.4061 82.864 82.6199 81.9123 83.4064 81.2813C84.4163 80.5133 86.2608 79.1936 87.6944 78.0173C89.128 76.841 91.9466 74.105 92.3063 73.3088C92.52 73.6192 92.568 73.8131 92.568 73.8131C92.568 73.8131 91.1511 75.6582 90.4131 76.8326C89.7623 77.8426 89.8109 78.4154 89.8109 78.4154L91.1511 77.8394C91.1511 77.8394 91.5389 79.2762 89.7821 81.4611C90.5501 81.1699 90.8599 81.3446 91.2963 81.1014C90.5776 81.5584 89.5875 82.1798 88.6557 83.888C87.7431 85.5968 86.5002 87.5872 84.4035 88.8294C82.3645 90.1402 81.1895 91.1206 81.1895 91.1206V91.1206L81.1946 91.1264Z" fill="#A67A2E"/>
<path fill-rule="evenodd" clip-rule="evenodd" d="M75.9319 25.5635C75.9319 25.5635 75.1357 27.223 75.0193 28.5145C75.0001 28.8256 74.922 29.0681 74.922 29.4272C74.9028 30.5824 74.9898 31.8739 74.73 32.4755C74.6327 32.2329 74.5841 32.0678 74.4868 31.9712C74.3415 32.3789 74.0791 33.6505 73.8653 34.1261C73.7687 33.8157 73.5549 32.7379 73.5748 31.4662C73.5946 30.1945 73.6228 29.9513 73.6228 29.6896C73.5748 30.0774 73.3124 30.6022 73.2151 30.9126C73.0698 30.6509 72.9047 30.311 72.7101 30.0294C72.5937 30.2214 72.4484 30.5049 72.3223 30.6509C72.3025 30.5344 72.2545 30.2233 72.225 29.7869C72.2058 29.2819 72.1764 28.6317 72.2058 28.4953C72.2538 28.2336 72.6621 27.2045 73.5261 26.2624C74.5553 25.136 75.6138 22.9715 75.9242 22.3014C76.2346 21.6313 77.5549 18.8454 77.5549 18.8454H78.5649L77.0986 22.1849C77.0986 22.1849 76.2154 24.0102 75.7591 24.6809C75.3028 25.3517 74.3415 27.2736 73.914 28.0211C74.2244 27.6134 74.4868 27.3997 74.7978 27.0112C75.0986 26.7392 75.9332 25.5648 75.9332 25.5648V25.5648L75.9319 25.5635Z" fill="#8C6228"/>
<path fill-rule="evenodd" clip-rule="evenodd" d="M81.573 13.8445C81.408 14.3522 81.1473 14.8236 80.805 15.2333C80.2028 15.952 78.9112 16.9126 78.2808 17.6794C77.7048 18.4269 76.5528 20.4659 77.0764 22.8832C77.2684 22.359 77.63 21.3203 78.5912 20.1453C79.5525 18.9702 80.5816 17.6211 81.0872 16.5728C81.5916 15.5142 81.6594 14.6797 81.6594 14.6797L81.8514 14.4371L81.7349 13.8835L81.5698 13.8445L81.573 13.8445Z" fill="#CBA94C"/>
<path fill-rule="evenodd" clip-rule="evenodd" d="M101.234 78.2425C101.234 78.2425 100.845 77.1846 100.729 76.2234C100.613 75.2621 100.921 75.0714 100.564 73.9712C100.35 73.3011 99.9623 73.3952 99.865 73.3011C99.7677 73.207 99.6999 72.1945 99.7191 71.6409C99.7383 71.0873 99.6999 70.3693 99.6026 70.0582C99.4573 69.9418 99.36 69.8445 99.1463 69.1264C98.9037 68.4077 98.7872 68.0486 98.6708 67.8355C98.5543 67.6224 98.2138 67.4278 98.2138 67.2141C98.2138 66.7865 98.6023 66.5638 98.6023 66.4461C98.5831 66.2035 98.2919 66.3981 98.2138 66.3296C98.1172 66.2131 98.457 65.5142 98.3309 65.417C98.2823 65.369 97.9424 65.7766 97.8548 65.6601C97.7575 65.543 97.641 64.3878 97.4663 63.6211C97.3018 62.8736 97.1264 62.3302 97.1072 62.1069C97.088 61.8931 95.7671 58.1261 95.4471 57.2134C95.1892 56.4423 94.9722 55.658 94.7968 54.864C94.6996 54.4077 94.6317 53.4752 94.5831 53.5725C94.5344 53.6697 94.5639 54.1453 94.4858 54.1261C94.418 54.1062 94.1754 52.4467 94.098 52.1843C94.0301 51.9219 93.6218 51.0323 93.522 50.3885C93.4247 49.7376 93.2116 48.0384 93.0656 46.8832C92.9197 45.728 92.8519 45.2525 92.8519 44.9632C92.8758 44.2556 92.8368 43.5474 92.7354 42.8467C92.5434 41.623 92.1594 40.1376 91.8228 39.2742C91.1725 37.6429 89.4439 33.4681 89.1348 32.4294C89.1348 32.167 89.4746 32.3129 89.4746 32.3129C89.4746 32.3129 90.3188 34.4294 90.9402 36.0601C91.5424 37.6915 92.1152 39.1283 92.2612 39.2742C92.3776 39.4195 93.2903 41.0214 93.698 43.6429C94.1056 46.2643 94.2509 48.6816 94.4941 50.2931C94.6106 51.0611 94.7079 51.8758 94.9504 52.6912C95.2122 53.575 95.6199 54.4877 96.1543 55.8854C96.6106 57.0605 96.9504 58.0409 97.1348 58.8857C97.3485 59.9635 97.3485 60.7789 97.4746 61.3133C97.5917 61.7696 97.7658 62.6816 98.1741 64.0013C98.5824 65.321 99.1834 67.0208 99.5911 68.0787C100.388 70.1952 100.743 71.9622 100.863 72.9043C100.97 73.8752 101.329 77.2346 101.232 78.2438V78.2438L101.234 78.2425Z" fill="#A88F33"/>
<path fill-rule="evenodd" clip-rule="evenodd" d="M81.6222 13.728L81.5736 13.8445C81.5736 13.8445 81.7188 13.8931 81.69 14.0877C81.6921 14.3539 81.6759 14.6199 81.6414 14.8838C81.5934 15.2237 81.4961 15.4854 81.4769 15.6992C81.4769 16.1555 81.5448 16.6797 80.9009 17.9808C80.7089 18.3398 80.5905 18.6502 80.4932 18.864C80.2507 19.3881 80.202 19.4662 79.9883 19.7088C80.3281 19.5168 81.5518 18.7488 82.1726 18.864C81.7457 19.1065 81.0948 19.5827 80.6872 20.2041C80.7844 20.2233 81.1921 20.3014 81.8392 20.2041C82.9169 20.039 84.1208 19.6505 85.1787 19.728C86.3345 19.7958 85.8782 18.3398 85.8782 18.3398L84.5444 15.408L82.0203 13.632L81.6222 13.7286V13.728Z" fill="#BE9C44"/>
<path fill-rule="evenodd" clip-rule="evenodd" d="M88.2037 35.6896C88.2037 35.6896 87.0773 34.5632 86.6209 30.6976C86.1646 26.8141 86.2619 21.0976 86.2619 21.0976L85.3493 18.8646C85.3493 18.8646 85.1573 17.3792 84.6792 16.8262C84.2011 16.2733 83.2622 15.3408 82.8347 14.8845C82.4072 14.4282 81.9221 13.8067 81.6309 13.7094C81.7761 13.4669 82.427 12.0979 84.9217 12.0787C87.4165 12.0595 88.1857 13.4477 88.4462 13.9526C88.7067 14.4576 89.883 16.6406 90.3195 20.8006C90.7272 24.9555 90.747 25.2666 90.6792 26.7034C90.6305 27.4995 90.3681 29.344 89.9112 31.3146C89.4939 32.985 89.0376 34.8493 88.2024 35.6934L88.2037 35.6896Z" fill="#A17C34"/>
<path fill-rule="evenodd" clip-rule="evenodd" d="M84.6721 39.0003C85.0475 39.0274 85.4225 38.9428 85.7499 38.7571C86.1089 38.7379 87.41 38.903 88.4097 37.6313C88.4775 37.9219 88.6529 38.7091 88.1959 39.408C88.4391 39.1648 88.7982 39.0681 88.8468 39.0003C88.866 39.3593 89.2059 40.4659 87.7691 43.1552C88.1569 42.7283 88.6132 42.7475 89.0209 42.6989C89.0407 43.2038 89.3121 44.9024 88.594 45.8157C88.1185 46.4371 87.3415 46.2425 87.3415 46.2425C87.3529 46.1069 87.3529 45.9705 87.3415 45.8349C87.3223 45.5725 87.2251 45.3107 87.2935 45.136C86.9181 44.9645 86.5761 44.7276 86.2836 44.4365C85.4388 43.6403 84.3419 42.2816 84.2644 41.2717C84.1671 40.1453 85.1771 39.9027 85.1771 39.9027C85.0925 39.827 85.0203 39.7385 84.9633 39.6403C84.9147 39.4758 84.866 39.2134 84.6721 39.0003V39.0003V39.0003Z" fill="#8C6228"/>
<path fill-rule="evenodd" clip-rule="evenodd" d="M77.1834 26.7866C77.1834 26.7866 77.1348 26.7187 76.873 27.0291C76.9217 26.7187 76.9703 26.4269 76.9895 26.1453C77.1134 25.8846 77.2737 25.6428 77.4657 25.4272C77.3198 25.7178 77.2225 25.9802 77.2225 25.9802C77.2225 25.9802 77.5822 25.3101 78.1063 24.9024C78.4654 24.6112 78.9217 24.4755 79.1156 24.2035C79.3294 23.9123 79.2807 23.8637 79.3294 23.815C79.3294 23.815 79.8055 23.5046 80.5338 22.5914C80.6305 22.4749 80.7764 22.3488 80.8737 22.2323C81.0382 22.1645 81.4266 21.9898 81.883 21.7562C82.3591 21.4944 82.8929 21.1354 83.2231 20.9882C83.8734 20.697 84.5633 20.7264 84.8833 20.2694C85.1258 20.2016 85.3876 19.4733 85.3396 18.8525C85.6986 18.9978 87.5431 20.1434 88.1748 22.6483C88.6311 24.425 87.8151 27.1629 87.4753 28.4838C87.1354 29.8048 87.0874 30.7846 86.6113 31.3862C86.009 32.183 84.0679 33.3062 83.5918 33.8624C83.1841 34.3187 81.961 35.4739 82.009 36.3085C82.0577 36.9299 82.8244 37.2685 82.9902 37.3862C83.1559 37.504 83.1546 37.6486 83.4657 37.5782C83.7767 37.5078 83.8926 37.3645 84.0193 37.3645C84.1646 37.3837 84.1646 37.4131 84.2324 37.4131C84.2816 37.4117 84.3305 37.405 84.3783 37.3933C84.3783 37.3933 84.3297 38.2771 82.2618 38.5453C82.1159 38.5651 81.9706 38.6131 81.7857 38.6426C82.0289 38.5261 82.1742 38.5261 82.4366 38.167C82.1454 38.1184 81.3102 38.0698 81.0964 38.0019C81.1642 37.8854 81.3876 37.5744 81.5719 37.4291C81.737 37.2838 81.5527 37.2371 81.4074 37.3126C81.1573 37.4828 80.9173 37.6674 80.6887 37.8656C80.4462 38.0794 80.2324 38.3706 79.8439 38.6336C79.7274 38.2451 79.7466 37.5072 80.2036 36.9734C80.0865 36.9926 79.8631 37.3325 79.65 37.2646C79.6115 36.9105 79.6344 36.5524 79.7178 36.2061C79.8343 35.769 80.4654 35.0022 80.4654 35.0022L83.5137 29.5552L84.1639 25.4291L77.1834 26.7853V26.7853V26.7866Z" fill="#92723A"/>
<path fill-rule="evenodd" clip-rule="evenodd" d="M77.0186 27.0195C77.0186 27.0195 76.8535 27.136 77.1838 27.3594C77.1351 27.4272 77.0186 27.6698 76.8727 27.8349C76.7082 28.0269 76.5329 28.1459 76.465 28.3111C76.3198 28.6509 76.2033 28.8839 76.2033 29.0298C76.2033 29.1757 76.1546 30.1075 75.747 30.7091C75.601 30.9229 75.4359 31.2819 75.3194 31.5245C75.0769 31.9514 74.8631 32.2925 74.8145 32.4845C74.7178 32.8243 74.65 33.7562 74.65 33.7562C74.65 33.7562 74.8638 33.4938 74.9412 33.3971C74.8241 33.6397 74.698 33.9015 74.5137 34.096C74.6302 33.9987 74.97 33.7562 75.5428 33.2512C76.339 32.5818 77.5818 31.4554 79.0967 30.5632C78.6398 30.7283 78.2519 30.7283 77.9415 30.777C78.1841 30.5344 80.3684 27.9712 81.514 27.7287C81.5835 27.6405 81.6182 27.5297 81.6113 27.4176L80.6302 27.321L78.6398 27.7479L78.3492 26.2119L77.0186 27.0176V27.0195Z" fill="#B18E3E"/>
<path fill-rule="evenodd" clip-rule="evenodd" d="M80.1846 35.7575C80.1846 35.7575 79.9222 36.0192 79.6796 36.6701C79.4929 36.4751 79.3328 36.2562 79.2035 36.0192C78.8444 35.4176 78.2915 34.6503 77 35.0874C76.9808 34.6797 76.9513 34.4659 77 34.1747C77.2137 34.1267 77.864 33.6026 78.5142 32.8352C78.9712 32.3111 79.398 31.7088 79.6892 30.9421C79.8812 30.7962 80.2134 30.5536 80.6492 30.272C81.2707 29.8451 82.0182 29.2621 82.1347 28.6119C81.8435 28.7283 81.222 29.0195 80.2896 28.9715C80.6492 28.8064 81.2022 28.6317 81.1344 27.913C81.2803 27.8157 81.3968 27.7479 81.3968 27.7479C81.2873 27.7113 81.1722 27.6949 81.0569 27.6992C81.0371 27.6314 81.0083 27.5347 80.8432 27.5827C80.678 27.6307 80.6512 27.6314 80.6294 27.6992C80.5616 27.7191 80.3382 27.6992 80.1731 27.8163C80.008 27.9335 79.5516 28.3207 79.3769 28.3885C79.4448 28.272 79.5414 28.0979 79.5414 28.0979C79.5414 28.0979 79.0659 28.1459 78.726 28.2899C78.1046 28.5037 77.3865 28.8922 76.6582 29.2704C76.726 29.1539 76.7555 29.0784 76.8035 29.0567C76.8515 29.0349 76.9686 29.0087 76.9686 28.9888C76.9686 28.969 76.9206 28.7968 76.9494 28.7271C77.1671 28.2658 77.4241 27.824 77.7174 27.4067C78.0572 26.9498 78.1251 26.2995 78.1251 26.2995L79.6105 25.552L83.7852 24.592L86.4944 24.7571L86.1545 26.6311L84.5545 29.9027L83.1856 32.8832L81.622 34.7091L80.1852 35.7575V35.7575H80.1846Z" fill="#543E26"/>
<path fill-rule="evenodd" clip-rule="evenodd" d="M86.9518 27.648C86.9518 27.648 85.3205 29.6672 84.8642 29.9783C85.1554 29.3568 86.9518 25.6576 87.6021 24.6285C87.4568 24.512 87.2622 24.512 87.7186 22.7085C87.3307 23.6205 87.1944 24.0967 86.8744 24.3392C86.5544 24.5818 86.5147 24.5043 86.2984 24.5043C86.3393 24.4304 86.356 24.3457 86.3464 24.2618C86.3464 24.2618 84.9774 24.0967 84.0424 24.0967C83.1074 24.0967 81.2565 24.6016 80.2267 25.0093C79.4114 25.3491 78.955 25.3491 78.6638 25.5623C78.3726 25.8048 78.2075 26.0672 78.0616 26.1351C77.9451 26.2029 77.3922 26.3776 77.2654 26.5619C77.149 26.7539 76.955 26.9696 76.955 27.0183C76.955 27.0669 76.9064 27.1354 77.0523 27.0861C77.1003 27.0669 77.46 26.8723 77.8677 26.6298C78.4206 26.3194 79.0907 25.9603 79.5765 25.7466C80.9646 25.193 81.4018 25.2903 82.0226 25.1738C82.6728 25.0573 83.6053 24.7853 84.2261 24.7853C84.8475 24.7661 86.0226 24.7853 86.2946 24.8339C86.1781 24.9312 86.0808 25.0477 86.1294 25.4554C86.1294 25.5719 86.0322 25.6979 85.9374 25.9795C85.6469 26.7757 85.0933 28.096 84.7854 28.7661C84.3586 29.6781 83.8734 30.4455 83.6334 30.921C83.3934 31.3965 82.8654 32.649 82.3426 33.3191C81.8197 33.9891 81.5464 34.3968 81.3826 34.5427C81.2187 34.6887 80.0424 35.552 80.1301 35.8631C80.3438 35.7952 81.6936 35.2871 82.6734 34.1837C83.6533 33.0803 83.8485 32.4071 84.6152 31.8048C85.3819 31.2026 85.9842 30.1933 86.3432 29.3587C86.644 28.5818 86.5762 28.3392 86.9544 27.6499V27.6499L86.9518 27.648Z" fill="#806031"/>
<path fill-rule="evenodd" clip-rule="evenodd" d="M51.7962 42.7187C51.7962 42.7187 51.5824 43.6019 51.0967 44.039C50.6212 44.4666 49.7764 44.8352 49.6797 45.5539C49.5632 46.272 50.5245 46.6317 50.5245 46.6317C50.5245 46.6317 49.9997 47.4957 49.9997 48.1459C49.9997 48.816 49.9805 48.9421 50.0484 49.5827C49.9714 49.6323 49.9059 49.6977 49.8564 49.7747C49.8564 49.7747 49.9044 50.3962 50.3805 50.784C50.8567 51.1718 51.2637 51.4054 51.5063 51.3082C51.5433 51.3873 51.5758 51.4685 51.6036 51.5514C51.6036 51.5514 51.9632 50.6387 52.2058 49.8426C52.4484 49.0272 52.6621 49.143 52.7588 48.0461C52.8554 46.9491 53.9108 45.0656 53.9108 45.0656L54.6308 43.456L53.4564 42.5434L51.7962 42.7181V42.7187Z" fill="#B6903C"/>
<path fill-rule="evenodd" clip-rule="evenodd" d="M53.9808 44.3008C53.7386 44.5494 53.5151 44.8155 53.312 45.097C53.0016 45.5245 52.759 45.9123 52.3027 46.0781C51.8464 46.2439 51.5552 46.2426 51.584 46.6995C51.6128 47.1565 52.0403 47.3498 52.2829 47.5827C52.5453 47.8253 52.759 48.233 52.6425 48.6899C52.7878 48.6221 53.0502 48.544 53.2928 48.0199C53.5353 47.4957 55.232 44.3015 55.232 44.3015H53.9808V44.3008Z" fill="#685026"/>
<path fill-rule="evenodd" clip-rule="evenodd" d="M60.6713 36.9318C60.6713 36.9318 60.8165 36.544 60.6713 36.2624C60.5253 35.9712 59.6421 35.8739 59.205 35.5437C58.7487 35.2038 58.1951 34.9677 57.7388 35.1168C57.8066 34.9517 58.0786 34.592 57.8553 34.5146C57.6415 34.4467 56.846 34.8058 56.6322 34.9709C56.4185 35.136 55.9327 35.3299 55.8361 35.447C55.7394 35.5642 55.5737 35.7869 55.4764 35.6896C55.3791 35.6218 55.3311 35.447 55.166 35.5437C55.0009 35.6403 54.206 36.2912 54.0594 36.6701C53.9129 37.049 53.5833 37.8938 52.5932 38.8544C51.6031 39.815 51.1756 40.4371 51.4668 40.7962C51.758 41.1552 51.8943 40.8934 51.9429 41.2038C51.9804 41.5086 51.9639 41.8175 51.8943 42.1165C51.7778 42.6214 51.5839 43.097 51.8457 43.1942C52.5157 43.408 53.1666 43.0022 53.3119 43.1264C53.6031 43.3882 53.1468 44.3302 53.8361 44.5146C54.5356 44.7066 55.2249 44.3494 55.2249 44.3494L57.7682 42.9805L60.2149 41.6896L61.4668 39.2134L60.7954 37.1456L60.6674 36.9318H60.6713Z" fill="#D4B968"/>
<path fill-rule="evenodd" clip-rule="evenodd" d="M58.2716 42.8448C58.2716 42.8448 57.8441 42.1946 58.3689 41.6211C58.8937 41.0477 59.6405 40.8058 59.9317 40.4467C59.8763 40.3784 59.802 40.3278 59.718 40.3015C59.9113 39.9556 60.2062 39.6774 60.5628 39.5047C60.4175 39.3594 60.2229 39.2429 60.0098 39.2429C59.5337 39.2429 59.2418 39.5341 58.8053 39.5341C58.3785 39.5341 58.3298 39.3203 58.3298 39.3203C58.3298 39.3203 59.0485 39.2525 58.9801 38.9319C58.9122 38.592 58.7881 38.592 58.7881 38.592C58.7881 38.592 60.1762 38.016 60.4188 37.7088C60.6613 37.4016 60.6325 37.0387 60.6812 36.8935C60.8457 36.8935 61.8069 36.3885 62.1954 36.6023C62.5839 36.816 62.3119 37.3984 62.3119 37.3984C62.3119 37.3984 63.4876 36.5146 64.0866 35.648C64.6108 35.6967 64.8546 35.289 65.2386 35.289C65.7148 35.289 66.4623 35.9392 66.6076 37.3274C66.7049 38.1235 66.8501 38.5799 66.7049 39.9879C66.637 40.784 66.6562 42.4839 66.8969 43.3274C67.0613 43.9975 67.4498 43.9296 67.4498 43.9296C67.3902 44.1338 67.2721 44.316 67.11 44.4538C66.8476 44.6963 66.8188 45.3376 66.8476 45.5802C66.8863 45.7575 66.935 45.9325 66.9935 46.1043C66.9935 46.1043 66.6831 46.4634 66.605 46.7066C66.5372 46.9491 66.2172 47.1143 65.9836 47.1143C65.75 47.1143 65.8671 47.0944 65.5567 47.1143C65.2463 47.1341 65.149 47.1821 64.9545 47.1143C64.7599 47.0464 64.6146 46.9683 64.6927 46.3463C64.7605 45.7248 62.2946 44.2784 62.2946 44.2784L58.2626 42.8416V42.8416L58.2716 42.8448Z" fill="#CCA849"/>
<path fill-rule="evenodd" clip-rule="evenodd" d="M53.6419 48.9805C53.6419 48.9805 54.5251 50.1555 58.1564 50.1555C59.8844 50.1555 60.4867 49.9904 60.8444 49.8931C61.2329 49.7958 62.6889 49.2237 64.1552 47.495C65.4755 45.9322 65.1843 45.2915 65.1843 45.2915L64.4163 45.175L61.9203 45.5149L54.5347 48.6605L53.6387 48.9805H53.6419Z" fill="#585136"/>
<path fill-rule="evenodd" clip-rule="evenodd" d="M56.3487 49.2717C56.3487 49.2717 53.2031 49.9712 53.2031 47.9808C53.2031 46.039 55.1449 44 55.6306 43.641C56.1356 43.2813 57.3394 42.873 57.3394 42.873H60.2425L60.7954 44.3392L60.5529 47.504L56.3487 49.271V49.2717Z" fill="#252211"/>
<path fill-rule="evenodd" clip-rule="evenodd" d="M59.2519 43.4662C59.2519 43.4662 58.6503 42.9126 57.2814 43.6582C55.9124 44.4038 54.8052 45.9622 54.7374 47.3773C54.6695 48.6291 55.7665 49.5616 57.4753 49.6102C58.747 49.6582 59.5143 49.513 59.9028 49.4182C59.8055 49.3018 59.3006 48.6707 59.3006 48.6707L59.2526 43.4669V43.4669L59.2519 43.4662Z" fill="#C3B378"/>
<path fill-rule="evenodd" clip-rule="evenodd" d="M58.6597 43.776C58.6597 43.776 58.5145 43.6595 58.0837 43.8925C57.7247 44.0845 57.2005 44.592 56.7929 44.951C56.5305 45.1648 56.3653 45.2614 56.2169 45.4266C55.6146 46.1453 55.1097 47.3203 55.4015 47.9027C55.6933 48.4851 56.654 49.1552 59.1007 48.6989L58.6527 43.7766V43.7766L58.6597 43.776Z" fill="#E6D89C"/>
<path fill-rule="evenodd" clip-rule="evenodd" d="M57.864 44.9805C57.864 44.9805 57.4755 45.5827 57.4755 46.544C57.4755 47.5245 58.0291 49.0874 60.0681 49.2038C61.631 49.3011 62.6793 46.9517 63.8153 46.039C64.6793 45.3402 65.2035 45.3203 65.2035 45.3203C65.2035 45.3203 64.3203 44.3603 61.9612 43.1168C59.631 41.8643 57.0192 41.6992 55.6016 43.6218C56.2716 43.5731 58.4368 43.0195 58.4368 43.0195L59.4953 43.3594L57.864 44.9811V44.9811V44.9805Z" fill="#252211"/>
<path fill-rule="evenodd" clip-rule="evenodd" d="M60.9131 46.2522C60.8453 46.1069 60.7966 45.9123 61.0782 45.8643C61.3598 45.8163 61.4859 45.8445 61.5832 46.0563C61.6805 46.2682 61.7752 46.4448 61.6312 46.5325C61.4859 46.6099 61.107 46.5325 60.9125 46.2509L60.9131 46.2522ZM60.4568 44.8832C60.4568 44.8832 60.3595 44.951 60.4082 44.8154C60.4274 44.6509 60.5541 44.359 60.8645 44.4275C61.1749 44.496 61.1077 44.8352 61.0565 44.9325C61.0053 45.0298 60.7461 45.1942 60.5515 45.1245C60.5015 45.1117 60.4606 45.0758 60.4413 45.0279C60.4221 44.98 60.4269 44.9257 60.4542 44.8819L60.4568 44.8832Z" fill="#6F674D"/>
<path fill-rule="evenodd" clip-rule="evenodd" d="M34.1758 45.504C34.1758 45.504 34.9438 46.08 35.8359 46.0576C36.7191 46.0378 37.8551 45.1258 38.3793 44.5427C38.6897 44.2029 38.9553 43.8439 39.2433 43.5623C39.4865 43.3197 39.651 43.2032 39.7675 43.0381C39.9326 42.8461 40.1073 42.4851 40.195 42.368C39.9812 42.5331 39.6708 42.825 39.3502 43.0189C39.0398 43.2109 38.3697 43.5719 38.0977 43.6691C37.8359 43.7664 35.1172 45.2051 35.1172 45.2051L34.1758 45.504V45.504Z" fill="#AC924C"/>
<path fill-rule="evenodd" clip-rule="evenodd" d="M35.3496 38.3303C35.3496 38.3303 35.7765 38.0391 36.6021 37.8541C37.3982 37.6621 39.0002 37.5143 39.0002 37.5143L40.3205 38.0903L40.8446 40.0807L39.8846 42.1491L38.6616 42.9171L37.2728 40.6842L35.3528 38.3341V38.3341L35.3496 38.3303Z" fill="#9F8E57"/>
<path fill-rule="evenodd" clip-rule="evenodd" d="M33.621 40.1069L33.1641 40.448C33.1641 40.448 33.2812 40.2342 33.3778 39.584C33.4745 38.9337 33.9801 37.351 34.718 36.4384C35.4559 35.5257 35.4367 35.5744 35.4367 35.5744C35.2993 35.5493 35.1578 35.5845 35.0482 35.671C35.1455 35.456 35.7669 34.688 36.3884 34.304C37.0098 33.92 37.2524 33.799 37.9026 34.112C38.5529 34.4249 38.718 34.5875 39.1941 34.5683C39.6703 34.5491 40.0773 34.0441 40.0773 34.0441C40.0773 34.0441 40.1746 34.3545 39.8156 35.0733C39.4565 35.792 38.0389 37.2576 38.0389 37.2576L35.0873 39.2768L33.621 40.1088V40.1088V40.1069Z" fill="#EAC970"/>
<path fill-rule="evenodd" clip-rule="evenodd" d="M35.8053 38.0877C35.8053 38.0877 37.9416 38.3789 38.5919 37.7773C38.6111 37.8451 38.6891 37.8451 38.6891 37.8938C38.6839 37.9304 38.6668 37.9644 38.6405 37.9904C38.7112 37.9791 38.7826 37.9727 38.8543 37.9712C38.9398 37.9967 39.0277 38.013 39.1167 38.0198C39.1883 38.0183 39.2597 38.0117 39.3304 38C39.3168 38.0975 39.2641 38.1853 39.1845 38.2432C39.2818 38.2432 39.3765 38.2624 39.3765 38.3398C39.3765 38.4173 39.3957 38.6509 39.2792 38.6995C39.1827 38.7262 39.08 38.7192 38.988 38.6797C38.9957 38.8635 39.0456 39.0431 39.1339 39.2045C39.3259 39.5635 39.7355 39.9725 40.2859 39.8547C40.2859 39.8547 40.5765 40.5536 39.3535 42.1069C39.189 42.3206 39.0136 42.6118 38.8005 42.8544C38.7163 43.038 38.6519 43.23 38.6085 43.4272C38.6085 43.4272 40.677 42.631 41.269 40.8154C41.8712 38.9901 41.9877 37.1942 41.8712 35.5149C41.8514 35.0387 41.7739 34.6995 41.6575 34.4563C41.3663 33.8541 40.5503 33.9514 40.2207 34.2912C39.7445 34.7674 38.9483 35.9514 37.8418 36.7667C36.7154 37.5821 36.6674 37.7267 35.8027 38.0877V38.0877H35.8053Z" fill="#D7BC6B"/>
<path fill-rule="evenodd" clip-rule="evenodd" d="M33.2422 40.7091C33.2422 40.7091 32.8346 40.9517 32.6208 41.8611C32.407 42.793 32.8128 43.929 33.0477 44.288C33.2826 44.647 33.8157 45.6282 34.9216 45.6768C35.1953 45.6753 35.466 45.6192 35.7178 45.5117C36.1038 45.3347 36.4659 45.1095 36.7955 44.8416C37.2717 44.4826 37.6595 44.1722 37.6109 44.1427C37.4944 44.0941 34.679 41.7638 34.679 41.7638L33.6205 40.5824L33.2416 40.7104L33.2422 40.7091Z" fill="#585136"/>
<path fill-rule="evenodd" clip-rule="evenodd" d="M35.9039 44.5728C35.9039 44.5728 36.4767 44.5248 36.8166 44.311C37.1564 44.0973 34.8262 41.7869 34.8262 41.7869L34.9913 44.2829L35.9039 44.5728Z" fill="#453A25"/>
<path fill-rule="evenodd" clip-rule="evenodd" d="M33.4278 40.5338C33.4278 40.5338 33.1366 41.0874 33.1366 41.2333C33.0879 41.7088 33.2338 43.2038 33.3503 43.6794C33.4668 44.1843 34.0978 44.951 34.9138 44.951C35.4182 44.951 36.1177 44.6406 36.1177 44.5632C36.1177 44.4659 35.399 44.3712 35.205 44.0096C35.0886 43.8176 35.0399 43.3402 35.013 42.8576C34.9938 42.5472 34.9938 42.2074 35.1103 42.0896C35.3727 41.7984 35.4207 40.9632 35.4207 40.9632L36.3526 39.232H35.127L33.6607 40.1446L33.4278 40.5338Z" fill="#84754B"/>
<path fill-rule="evenodd" clip-rule="evenodd" d="M33.0684 41.0682C33.0684 41.0682 34.0284 39.7965 34.8936 39.5047C35.7589 39.2128 36.1461 39.3882 36.1461 39.3882L35.6412 40.6797L34.9224 41.4759L34.9711 41.8835C34.9711 41.8835 34.854 42.9613 35.5727 43.7088C36.2914 44.4563 36.8252 44.4275 37.1362 44.4275C37.4472 44.4275 38.34 44.1651 38.7964 43.0874C39.204 42.0781 39.5439 40.7834 38.7285 39.4855C37.9317 38.1939 36.5244 38.144 36.2524 38.144C35.9804 38.144 33.8447 38.2509 33.0684 41.0663V41.0663V41.0682Z" fill="#252211"/>
<path fill-rule="evenodd" clip-rule="evenodd" d="M57.7192 45.3882C57.3602 45.223 57.7 44.2138 58.059 43.9027C58.4181 43.5917 58.8744 43.2333 59.6712 43.184C59.9618 43.1648 60.2434 43.3491 60.1954 43.5437C60.1275 43.9027 59.6226 44.4077 59.1662 44.7667C58.5352 45.2621 58.1269 45.5725 57.7192 45.3882Z" fill="#F7F7E7"/>
<path fill-rule="evenodd" clip-rule="evenodd" d="M38.3011 39.8835C38.5635 39.8643 38.9034 40.0755 38.9712 40.3597C39.039 40.6701 38.8061 41.2915 38.3011 41.2915C37.8934 41.2915 37.6797 40.7866 37.6797 40.6413C37.6843 40.5218 37.7177 40.4053 37.777 40.3015C37.7962 40.272 37.8448 39.9322 38.3011 39.8835V39.8835Z" fill="#F8F6DE"/>
<path fill-rule="evenodd" clip-rule="evenodd" d="M34.5145 40.1069C34.5145 40.1069 33.8444 40.4173 33.534 41.0669C33.3122 41.5466 33.2451 42.0834 33.342 42.6029C33.3906 42.8454 33.6332 43.447 33.7983 43.6608C33.9634 43.8746 34.1868 44.0205 34.3519 44.0006C34.517 43.9808 34.8562 43.5443 34.8562 43.2826C34.8562 43.0208 34.8761 41.9136 35.1961 41.3114C35.4777 40.7098 34.5164 40.1075 34.5164 40.1075V40.1075L34.5145 40.1069Z" fill="#D4C38B"/>
<path fill-rule="evenodd" clip-rule="evenodd" d="M34.6117 40.0582C34.4952 40.1261 34.3013 40.2234 34.3493 40.3494C34.3979 40.4659 34.8056 40.5414 34.9515 40.8256C35.1166 41.1168 35.1166 41.4272 35.068 41.5731C35.1948 41.5129 35.3099 41.4305 35.4078 41.3299C35.6216 41.0874 35.8834 40.7578 36.1067 40.7578C36.2526 40.7578 36.3979 40.8256 36.5342 40.8256C36.748 40.8256 36.9611 40.7578 36.9906 40.5344C37.0386 40.2432 36.5829 39.9808 36.3205 40.0294C36.3691 39.8374 36.437 39.5539 36.2232 39.3594C36.0094 39.1648 35.34 39.5053 35.1941 39.6026C35.0482 39.6998 34.6117 40.0589 34.6117 40.0589V40.0589V40.0582Z" fill="#E2D59D"/>
<path fill-rule="evenodd" clip-rule="evenodd" d="M50.0389 60.4563L51.4757 60.032L51.8834 60.3232C51.8834 60.3232 52.1739 60.9447 52.6309 61.0221C52.485 61.3325 52.1061 61.5981 52.1259 61.8183C52.1458 62.0384 52.3397 62.2067 52.3397 62.2067C52.3397 62.2067 51.0482 64.3424 53.5922 66.4947C52.9899 66.7373 52.2232 67.0707 51.8155 67.2627C52.1061 67.3306 52.7275 67.4547 52.9899 67.6903C53.2523 67.9258 53.2523 68.0007 53.4949 68.1466C53.7375 68.2925 53.8827 68.4864 53.8347 68.5735C53.6696 68.4762 53.116 68.1856 53.0194 68.457C52.9227 68.7283 50.6213 68.6221 50.6213 68.6221L46.7378 69.3696C46.7378 69.3696 46.8831 68.9811 46.4754 68.6221C45.9999 68.1952 45.4175 68.6413 44.796 68.1658C43.9807 67.5443 43.9512 66.8256 43.6895 66.5543C43.9512 66.3891 44.4856 66.1466 45.7573 65.9783C45.7087 65.881 45.5435 65.5898 45.6408 65.328C45.7573 64.9882 46.2424 64.7744 46.0971 64.368C46.3109 64.3194 46.4075 64.3194 46.9419 63.6493C47.4469 62.9792 47.7573 62.8339 48.1458 62.7853C48.5343 62.7367 48.7672 62.7853 49.4859 62.1152C49.9903 61.6397 49.8258 61.232 49.8258 61.232C49.8258 61.232 50.1554 61.1251 50.0395 60.4551V60.4551L50.0389 60.4563Z" fill="#CBAC5A"/>
<path fill-rule="evenodd" clip-rule="evenodd" d="M45.7972 60.672C45.8164 60.5747 45.8944 60.5261 46.4186 60.5747C46.9428 60.6234 50.2631 60.2643 51.1661 60.2157C52.0788 60.1478 55.2922 60.1958 56.8557 60.5261C58.4192 60.8563 60.0013 61.2448 60.768 61.4387C61.536 61.6525 61.778 61.7293 61.7485 61.8266C61.7293 61.9238 61.5565 62.0186 61.4573 61.9917C61.3607 61.9725 58.8167 61.1955 58.0308 61.0317C57.2448 60.8678 54.5255 60.4294 53.0388 60.4557C51.6506 60.4755 51.097 60.4365 49.9226 60.5722C48.7476 60.7181 46.8058 60.912 46.2234 60.8346C45.6474 60.7667 45.7664 60.7667 45.7959 60.6694V60.6694L45.7972 60.672Z" fill="#D6BC6F"/>
<path fill-rule="evenodd" clip-rule="evenodd" d="M53.6109 68.2816C53.6109 68.2816 55.6013 69.3594 56.32 70.6797C56.8442 71.6602 56.0096 72.1459 56.0096 72.1459C56.0096 72.1459 57.136 72.1459 56.9901 72.7674C56.9222 73.1552 55.0483 74.2035 53.7958 74.7571C52.5242 75.3107 52.5728 75.2819 51.9514 75.3786C51.3491 75.4758 49.6986 75.1866 49.3587 75.6698C49.0189 76.153 49.1667 76.6509 49.2614 76.7283C49.3587 76.7962 50.1453 76.8934 50.1453 76.8934C50.1453 76.8934 49.9802 77.3498 48.3494 77.3984C46.7187 77.447 46.3104 77.5629 46.2131 77.7382C46.1158 77.9027 46.5235 77.8061 47.2717 77.9302C48.0192 78.0467 49.0675 78.1222 49.0675 78.1222C49.0675 78.1222 48.7277 78.4134 47.8445 78.6464C46.8346 78.9082 45.2518 79.1514 44.7763 79.4426C45.0189 79.6077 45.3786 79.8502 45.5443 79.8694C45.1366 79.9667 44.5632 80.1805 44.4666 80.2579C44.6118 80.3552 44.8064 80.4717 44.8064 80.4717C44.8064 80.4717 43.9904 81.4522 43.5149 81.6954C43.0394 81.9386 40.3014 83.2096 39.3594 82.967C37.0099 82.3456 36.7187 79.7728 36.1459 79.5789C35.2819 79.2877 34.8742 79.8694 34.1069 79.4618C34.4467 79.2192 34.6317 79.0739 34.9907 78.9088C34.6022 78.7168 32.5926 77.4426 32.5926 77.4426C32.3825 76.9845 32.1492 76.5374 31.8938 76.103C31.5053 75.433 30.9338 74.5395 30.505 73.753C29.5731 72.025 29.5245 71.2288 28.6797 70.2483C28.8256 70.0563 29.3299 70.0832 29.3299 70.0832L36.4083 72.4134L48.9594 72.777L52.2234 68.1171L53.6115 68.2822L53.6109 68.2816Z" fill="#DFC677"/>
<path fill-rule="evenodd" clip-rule="evenodd" d="M35.0195 75.3882C35.0953 75.4725 35.1836 75.5446 35.2813 75.6019C35.5245 75.767 35.8835 75.9616 36.1261 76.2522C36.2234 76.1069 36.4659 75.8445 36.8941 76.2522C37.3223 76.6598 37.8541 76.3693 38.185 76.4659C38.5248 76.583 38.544 76.631 38.544 76.631C38.544 76.631 38.736 76.4659 39.1655 76.2912C39.4279 76.1939 39.7383 76.1261 40.0781 76.0294C40.3885 75.9616 40.7283 75.8643 40.9619 75.8643C41.1757 76.0096 41.9424 76.8243 45.0202 75.6218C47.9232 74.4954 48.5927 74.3693 49.0784 74.5434C49.1271 74.4269 49.1757 74.2035 49.9232 74.233C49.9232 73.9226 49.3018 72.864 49.3018 72.864L45.8746 71.6896H44L38.3789 72.7187L35.264 74.496L35.0215 75.392L35.0195 75.3882Z" fill="#C4A859"/>
<path fill-rule="evenodd" clip-rule="evenodd" d="M33.1465 73.4176C33.1465 73.4176 33.2143 73.9418 33.9913 74.4954C34.7593 75.0483 35.0006 75.3786 35.0006 75.3786C35.0006 75.3786 35.1465 75.1866 35.263 74.9907C35.3794 74.777 35.4767 74.5344 35.6706 74.4666C36.0591 74.3014 36.9423 74.6118 37.1369 74.5632C37.302 74.5152 37.2534 74.1754 37.4281 74.1754C37.8358 74.1555 38.0975 74.4371 38.2434 74.4371C38.3894 74.4371 38.7478 74.4179 38.7964 74.3405C38.845 74.263 38.8642 73.4566 39.4178 73.0682C40.0201 72.6413 40.758 72.8256 40.9538 72.9229C40.9538 73.0682 40.973 73.4278 41.3615 73.447C41.75 73.4662 41.7884 73.3984 42.1295 73.5149C42.4706 73.6314 42.877 73.4957 43.0614 74.0678C43.2265 74.0198 43.615 73.9712 43.5177 73.4176C43.7097 73.2723 43.8774 73.175 44.2857 72.6022C44.383 72.457 44.5474 72.2918 44.6742 72.0781C45.014 72.0781 45.4217 72.0102 45.965 72.4858C45.7999 72.6022 45.7026 72.6778 45.6546 72.7962C45.7968 72.9369 45.9265 73.0895 46.0425 73.2525C46.1884 73.4445 46.2857 73.68 46.47 73.7286C46.8777 73.8451 47.5478 73.68 48.2953 73.7286C49.014 73.7773 49.6156 74.039 49.878 74.2042C49.9753 74.1562 49.9753 74.1363 50.2178 74.185C50.4604 74.2336 50.6447 74.2528 50.383 73.9424C50.5282 74.0102 50.6934 74.1562 50.8393 74.0102C50.9852 73.8643 51.101 73.6512 51.5087 73.6026C51.9164 73.5539 52.0623 73.6218 52.2274 73.1949C52.4412 72.6707 51.7033 72.6707 51.7033 72.6707C51.7033 72.6707 52.0431 72.3597 52.422 71.952C52.8783 71.5251 53.4025 70.9715 53.5286 70.2918C53.7423 69.0394 52.5193 68.8749 52.5193 68.8749L46.5871 70.7002L39.3346 70.3405L33.1503 73.4182V73.4182L33.1465 73.4176Z" fill="#927D49"/>
<path fill-rule="evenodd" clip-rule="evenodd" d="M27.8163 56.2816C27.8163 56.2816 27.6243 56.5242 27.5059 57.097C27.3875 57.6698 27.4381 57.6019 27.3408 58.0096C27.2435 58.4173 26.0486 62.4755 26.4966 63.8445C26.9446 65.2135 27.7203 65.7184 28.2054 66.825C28.3027 67.0675 28.3974 67.2135 28.448 67.4272C28.6131 68.1453 28.4678 68.6989 28.6617 69.4176C28.7296 69.6602 28.9049 69.9418 29.1667 70.233C29.7427 70.8346 30.6816 71.4074 31.0867 71.8151C31.6589 72.4173 32.4749 73.641 33.5136 73.7568C34.0672 73.8247 34.8537 73.5917 35.504 73.2039C36.08 72.8442 36.4358 72.3399 37.04 72.0519C37.4669 71.8381 37.9232 71.7607 38.3309 71.6634C39.1757 71.4983 39.943 71.4714 40.3993 71.5661C41.0982 71.712 42.7488 72.217 43.6633 72.217C44.378 72.2054 45.0886 72.1077 45.7798 71.9258C47.168 71.5181 48.8473 70.8186 49.9545 70.5082C50.6048 70.3162 51.1289 70.2656 51.6633 70.1491C52.576 69.9354 53.3427 69.6442 53.7798 69.0906C53.4886 68.7507 53.1296 68.2266 51.1872 68.2458C48.9837 68.2944 46.4397 69.5175 45.1872 69.712C43.9347 69.9066 43.3913 70.0711 41.9929 69.5661C40.6221 69.056 40.5766 68.7187 40.5766 68.7187C40.5766 68.7187 39.1373 67.712 38.535 65.1456C37.9328 62.5792 38.535 60.7091 40.0985 58.9319C40.5062 58.4755 40.4089 58.0679 40.4089 58.0679C40.4089 58.0679 41.4381 56.6797 41.1565 55.3799C40.8461 54.0883 38.8557 54.3507 38.8557 54.3507L27.8169 56.2816V56.2816H27.8163Z" fill="#6E6342"/>
<path fill-rule="evenodd" clip-rule="evenodd" d="M29.4752 60.6022C29.3896 60.7632 29.3494 60.9443 29.3588 61.1264C29.378 61.3882 29.456 61.728 30.242 62.4954C30.912 63.1648 30.7661 63.9123 30.7661 63.9123C30.7661 63.9123 31.1034 63.9802 32.0186 63.552C32.7373 63.2122 32.9786 63.8144 32.9786 63.8144C33.1878 63.7047 33.4146 63.6323 33.6487 63.6006C33.8608 63.5811 34.0661 63.5156 34.2503 63.4086C34.2503 63.4086 35.0951 64.2726 35.833 64.6803C36.5031 65.04 36.8916 65.2826 37.2218 65.04C37.5322 64.8262 37.5322 64.3891 37.5124 64.1952C37.4353 64.0162 37.3378 63.8468 37.2218 63.6902C37.008 63.3798 36.6682 63.0202 36.6458 62.7302C36.5972 62.0608 37.1508 61.264 37.0336 61.0701C36.9165 60.8762 36.4807 60.8275 35.4029 61.216C34.2868 61.5846 29.4708 60.6042 29.4708 60.6042V60.6042L29.4752 60.6022Z" fill="#39331F"/>
<path fill-rule="evenodd" clip-rule="evenodd" d="M32.0194 64.9421C32.0194 64.9421 31.4665 64.4179 31.6604 61.8739C31.8951 61.8705 32.1295 61.8933 32.3593 61.9418C32.3593 61.9418 32.6607 63.913 32.0194 64.9421Z" fill="#292311"/>
<path fill-rule="evenodd" clip-rule="evenodd" d="M28.0788 54.3398C28.156 54.2827 28.2276 54.2184 28.2926 54.1478C28.1006 54.5069 27.2142 55.9437 27.9329 58.2061C28.6516 60.4582 30.4571 62.1376 32.6804 62.2157C34.9038 62.2938 36.0724 61.2058 37.4088 59.575C37.9329 58.9248 38.5352 58.1088 39.0689 57.5558C39.8651 56.6912 40.4865 56.4486 40.4865 55.6141C40.4865 53.9053 38.7387 53.1379 36.1659 52.3712C33.5931 51.6045 31.2724 51.6992 30.0686 52.224C28.8942 52.7962 28.3892 53.3984 28.0782 54.3405V54.3405L28.0788 54.3398Z" fill="#252211"/>
<path fill-rule="evenodd" clip-rule="evenodd" d="M36.3398 65.7088L36.5318 65.6115C36.5318 65.6115 36.5798 64.8435 36.8909 64.864C37.2013 64.9126 37.3472 65.3209 37.3177 65.4662C37.2985 65.6115 37.2211 65.8547 36.9101 65.8253C36.5024 65.8349 36.3379 65.7088 36.3379 65.7088H36.3398Z" fill="#3F3824"/>
<path fill-rule="evenodd" clip-rule="evenodd" d="M35.4766 62.4467C35.4766 62.4467 35.6686 62.3789 35.9034 62.6118C36.0954 62.6118 36.9326 62.5146 37.195 62.6797C37.4574 62.8448 37.5348 62.9901 37.5348 62.9901C37.5348 62.9901 36.5543 63.2038 36.0199 62.9901C35.4766 62.8058 35.4766 62.4467 35.4766 62.4467H35.4766Z" fill="#2D2815"/>
<path fill-rule="evenodd" clip-rule="evenodd" d="M39.7959 62.592C39.7959 62.5434 39.2717 62.1843 38.7181 62.0672C38.6208 62.048 38.601 62.1158 38.5261 62.1158C38.4775 62.0966 38.4583 61.9507 38.4583 61.9507L38.1434 62.1165C38.1434 62.1165 38.0948 62.1843 38.2599 62.3085C38.4052 62.425 38.6484 62.5222 38.7162 62.7162C38.784 62.9101 38.784 62.9779 38.8135 63.0074C38.8327 63.0266 39.1725 63.0074 39.3376 62.9101C39.5028 62.8128 39.8138 62.6541 39.794 62.5901V62.5901L39.7959 62.592Z" fill="#82764F"/>
<path fill-rule="evenodd" clip-rule="evenodd" d="M34.8926 64.5632C34.8926 64.5632 34.9892 63.8938 35.6401 63.8643C36.3095 63.8157 36.4363 64.4659 36.4363 64.4659L36.0478 64.8544C36.0478 64.8448 35.7566 64.4371 34.8958 64.5632H34.8926Z" fill="#2D2816"/>
<path fill-rule="evenodd" clip-rule="evenodd" d="M39.1168 61.6793C39.1168 61.6793 38.7571 62.0678 37.9616 62.1843C37.8937 62.087 37.7478 61.8931 37.9616 61.5827C38.1753 61.2723 38.4179 61.175 38.6604 61.2717C38.879 61.3071 39.057 61.4662 39.1168 61.6793Z" fill="#574F35"/>
<path fill-rule="evenodd" clip-rule="evenodd" d="M40.5824 62.1555C40.6023 62.0582 40.5344 62.039 40.5824 61.9904C40.6304 61.9418 40.8935 61.8451 40.9421 61.8931C40.9613 61.913 40.9421 61.9904 40.9421 62.0851C40.9421 62.1798 40.9421 62.2771 40.8935 62.3469C40.8256 62.4442 40.6317 62.4928 40.5344 62.464C40.4372 62.4352 40.418 62.2989 40.418 62.272C40.466 62.2528 40.5824 62.2042 40.5824 62.1555ZM42.24 61.1072C42.24 61.0586 42.4052 60.9613 42.5024 60.9613C42.6477 60.9613 42.6477 61.0778 42.6676 61.1072C42.7156 61.1264 42.7156 61.0874 42.7642 61.175C42.8128 61.2627 42.8813 61.4176 42.832 61.5149C42.7828 61.6122 42.5895 61.6794 42.5415 61.6602C42.4736 61.6115 42.2599 61.175 42.24 61.1072V61.1072Z" fill="#82764F"/>
<path fill-rule="evenodd" clip-rule="evenodd" d="M38.9023 62.3789C38.9023 62.3789 39.1161 62.4269 39.4073 62.6701C39.31 62.7379 39.1641 62.8154 39.1641 62.8154C39.1641 62.8154 39.1449 62.592 38.9023 62.3782V62.3789Z" fill="#6E6342"/>
<path fill-rule="evenodd" clip-rule="evenodd" d="M38.4276 60.2426C38.379 60.1946 38.5729 60.0781 38.6894 60.0973C38.8058 60.1165 38.8545 60.1946 38.9806 60.2138C39.1066 60.233 39.1265 60.1651 39.1726 60.1165C39.2186 60.0678 39.3863 60.0973 39.4151 60.1165C39.4331 60.1378 39.4493 60.1605 39.4638 60.1843C39.4679 60.1097 39.5029 60.0401 39.5604 59.9923C39.6358 59.9369 39.7325 59.919 39.8228 59.9437C39.842 60.0115 39.9393 60.2541 39.9201 60.3027C39.9009 60.3514 39.6097 60.4198 39.5604 60.3706C39.609 60.4877 39.8228 60.7302 39.8516 60.7782C39.8804 60.8262 39.6378 60.9434 39.5412 60.9242C39.4055 60.9146 38.5703 60.4288 38.425 60.2445L38.4276 60.2426ZM39.6993 58.631C39.6813 58.5821 39.6469 58.541 39.602 58.5146C39.5342 58.4954 39.3108 58.5146 39.3108 58.631C39.3108 58.7475 39.5028 59.399 39.7185 59.7382C39.9617 60.0781 40.1262 60.359 40.2913 60.4371C40.3988 60.4861 40.526 60.4436 40.5825 60.3398C40.6017 60.2912 40.6503 59.9322 40.6311 59.0874C40.6119 58.2426 40.5825 57.4272 40.5338 57.3786C40.4852 57.3299 40.2913 57.3306 40.2234 57.4272C40.1556 57.5238 39.7185 58.4858 39.6986 58.631V58.631H39.6993Z" fill="#585136"/>
<path fill-rule="evenodd" clip-rule="evenodd" d="M38.8346 63.6019C38.8346 63.6019 38.4947 63.3881 38.1645 63.5341C37.8541 63.68 37.8733 64.2528 37.8733 64.2528C38.0151 64.3083 38.1751 64.2901 38.3008 64.2041C38.5146 64.0589 38.7859 63.8163 38.8346 63.6025V63.6019Z" fill="#574F35"/>
<path fill-rule="evenodd" clip-rule="evenodd" d="M39.4752 64.3693C39.456 64.1773 39.2832 64.1773 39.2832 64.0781C39.3077 63.9805 39.3957 63.9123 39.4963 63.913C39.5936 63.913 39.6883 64.0295 39.8074 64.105C39.9238 64.1728 40.0986 64.297 40.1178 64.4448C40.137 64.5927 39.9258 64.9978 39.6909 64.9978C39.456 64.9978 39.5258 64.5607 39.4771 64.3667L39.4752 64.3693ZM41.3491 64.1069C41.3491 64.1069 40.9606 64.2234 40.9894 64.1069C41.0182 63.9904 41.1066 63.9616 41.2326 63.9616C41.2967 63.8946 41.3829 63.853 41.4752 63.8445C41.528 63.8419 41.5799 63.8593 41.6205 63.8931C41.6205 63.8931 41.8829 63.7767 41.9603 63.8445C42.0378 63.9123 41.9802 63.9123 42.0282 63.9904C42.0893 64.0771 42.1294 64.1768 42.1453 64.2816C42.1453 64.3591 41.8541 64.5242 41.6205 64.4954C41.3491 64.4371 41.3971 64.1555 41.3491 64.1069V64.1069ZM43.6109 63.6698C43.6109 63.6698 43.7274 63.7376 43.6307 63.8157C43.5629 63.8835 43.223 64.0077 42.9312 64.0295C42.64 64.0295 42.3782 64.0775 42.3782 63.9808C42.3782 63.8842 42.6208 63.6896 42.7661 63.641C42.8251 63.567 42.9147 63.5241 43.0093 63.5245C43.1258 63.5245 43.5814 63.4759 43.7082 63.4567C43.8246 63.4368 43.9219 63.5047 43.8534 63.6019C43.8246 63.6698 43.6109 63.6698 43.6109 63.6698V63.6698ZM44.281 60.672C44.281 60.672 44.135 60.9824 43.9706 60.9824C43.8054 60.9632 43.8054 60.9146 43.8054 60.8659C43.8054 60.7981 43.9706 60.6234 43.9507 60.5747C43.9027 60.5747 43.7856 60.5747 43.8054 60.4583C43.8054 60.361 43.9706 60.2445 44.1158 60.2663C44.2256 60.176 44.3623 60.1249 44.5043 60.121C44.6694 60.121 44.8147 60.169 44.8147 60.2663C44.8147 60.3635 44.6227 60.5767 44.5523 60.6259C44.4749 60.7034 44.3776 60.7539 44.281 60.6739V60.672ZM42.0672 66.4096C42.0672 66.4096 41.8752 66.4295 41.8752 66.5261C41.8752 66.5747 41.9232 66.5747 41.9917 66.5459C42.0311 66.5437 42.0702 66.537 42.1082 66.5261C42.1274 66.5459 42.1274 66.6426 42.2733 66.6426C42.3931 66.6264 42.5086 66.5868 42.6131 66.5261C42.7296 66.4781 42.8269 66.4288 42.8269 66.3341C42.7782 66.169 42.681 66.0909 42.5357 66.0909C42.4612 66.0862 42.387 66.1031 42.3219 66.1395C42.3219 66.1395 42.2733 66.0423 42.1082 66.1395C41.943 66.2368 41.9622 66.2368 42.0109 66.2855C42.0979 66.3629 42.0691 66.4135 42.0691 66.4135L42.0672 66.4096ZM40.9702 67.4195C40.9702 67.3709 41.2128 67.2736 41.2806 67.3031C41.3485 67.3223 41.5424 67.6909 41.5424 67.7299C41.5424 67.7786 41.2998 67.8951 41.2026 67.8951C41.1053 67.8951 40.9408 67.7299 40.9408 67.7031C40.9408 67.6839 41.0573 67.6551 41.0573 67.6352C41.0861 67.5872 40.9702 67.4701 40.9702 67.4215V67.4195ZM40.2022 66.0019C40.2509 65.9827 40.2509 65.9341 40.3187 65.8855C40.3618 65.8568 40.4157 65.8497 40.4646 65.8663C40.4993 65.8044 40.5599 65.7614 40.6298 65.7491C40.7462 65.7299 40.8435 65.7491 40.8218 65.7978C40.8218 65.9437 40.919 66.0403 40.919 66.1568C40.919 66.2733 40.8512 66.4192 40.6086 66.5165C40.3661 66.5843 40.0358 66.5843 39.9872 66.5651C39.9386 66.5459 39.8899 66.3514 39.9386 66.2541C39.9872 66.1568 40.1229 66.0506 40.201 66.0019V66.0019H40.2022Z" fill="#82764F"/>
<path fill-rule="evenodd" clip-rule="evenodd" d="M40.5128 66.0678C40.5128 66.0678 40.3477 66.1651 40.3477 66.2138C40.333 66.2607 40.3265 66.3099 40.3285 66.359C40.3285 66.3878 40.5422 66.3398 40.571 66.3104C40.5806 66.2912 40.5128 66.1184 40.5128 66.0678Z" fill="#6E6342"/>
<path fill-rule="evenodd" clip-rule="evenodd" d="M39.0672 65.6115C39.1639 65.6314 39.329 65.6115 39.4551 65.6602C39.5523 65.7088 39.6202 65.8061 39.5229 65.9226C39.4256 66.039 39.3309 66.2138 39.1152 66.1843C38.8727 66.1651 38.6397 66.039 38.6397 65.9418C38.6315 65.8175 38.6734 65.695 38.7562 65.6019C38.8535 65.5245 38.9015 65.5731 39.0666 65.6115V65.6115H39.0672Z" fill="#585136"/>
<path fill-rule="evenodd" clip-rule="evenodd" d="M38.9515 65.7088C38.9515 65.7088 38.6411 65.9514 38.563 66.0685C38.4657 66.185 37.9902 66.7866 37.8449 66.9126C37.8932 66.8275 37.9482 66.7464 38.0094 66.6701C37.8174 66.7929 37.6734 66.9779 37.6017 67.1942C37.4852 67.5539 38.2526 67.7478 38.7569 67.8938C39.2612 68.0397 39.4564 68.0858 39.4564 68.0858C39.2708 67.8067 39.1113 67.511 38.9803 67.2026C38.7883 66.7462 38.6891 66.6976 38.8151 66.4838C38.9124 66.2701 39.0583 66.1248 39.0583 65.9597C39.0001 65.8061 38.9515 65.7088 38.9515 65.7088Z" fill="#574F35"/>
<path fill-rule="evenodd" clip-rule="evenodd" d="M27.8841 66.4762C27.9548 66.4891 28.0272 66.4891 28.0979 66.4762C28.2431 66.4563 29.758 65.9002 31.3407 66C32.5256 66.0716 33.6999 66.2646 34.8454 66.576C36.8358 67.1002 39.3113 68.1389 40.9132 68.7315C41.3401 68.896 41.758 69.1878 42.0652 69.3037C43.2889 69.7798 43.3369 69.7798 44.0556 69.9059C44.9004 70.0224 45.7644 69.7408 46.6675 69.5469C47.774 69.3037 49.6671 69.1872 51.3273 68.9446C51.8641 68.8702 52.3936 68.7501 52.91 68.5856C52.91 68.5856 51.5897 69.9059 48.4243 70.3814C47.1448 70.5757 45.8445 70.5921 44.5606 70.4301C43.5507 70.3328 42.8812 70.1869 42.3763 70.0416C41.8035 69.8765 40.6284 69.4394 39.182 69.0816C38.1721 68.8192 37.0457 68.6253 35.7548 68.3827C32.5702 67.7997 29.1142 67.1302 27.8828 66.48L27.8841 66.4762Z" fill="#252211"/>
<path fill-rule="evenodd" clip-rule="evenodd" d="M24.3112 60.4762C23.5432 61.1264 22.7284 61.7478 21.9329 62.3494L19.5348 64.192C18.7195 64.7936 17.9233 65.415 17.1073 66.0173C16.2913 66.6195 15.4766 67.1917 14.6113 67.7453C15.3793 67.095 16.194 66.4928 17.0094 65.9008C17.8248 65.3088 18.6702 64.7283 19.4568 64.128L21.8548 62.2829C22.6798 61.6813 23.476 61.0598 24.3112 60.4774V60.4762ZM20.0686 67.2723C20.0686 67.2723 20.9326 66.5536 22.0104 65.5443C23.3499 64.2925 24.9908 62.6899 25.515 62.3994L20.068 67.273L20.0686 67.2723Z" fill="#CFB66C"/>
<path fill-rule="evenodd" clip-rule="evenodd" d="M20.0684 67.2717C20.4959 66.8448 20.9522 66.4275 21.4085 66.0192L22.1074 65.4176C22.3212 65.2256 22.5644 65.0099 22.7775 64.7962C23.2044 64.3693 23.6223 63.9123 24.0492 63.4758C24.2607 63.2563 24.4844 63.0489 24.7192 62.8544C24.8366 62.7505 24.967 62.6623 25.1071 62.592C25.2242 62.5242 25.3503 62.4 25.5148 62.3782C25.4181 62.5242 25.3016 62.592 25.2044 62.7181C25.0879 62.8154 24.9906 62.9318 24.894 63.0285C24.6802 63.2422 24.4376 63.4362 24.2239 63.6307C23.7676 64.0192 23.292 64.3987 22.8357 64.8051C22.3794 65.2115 21.9525 65.6499 21.4956 66.0576C21.0008 66.4755 20.5445 66.8832 20.0684 67.2736V67.2717ZM25.8744 63.3882C25.8744 63.3882 22.7096 66.4858 22.0588 66.9901L25.8744 63.3882Z" fill="#CFB66C"/>
<path fill-rule="evenodd" clip-rule="evenodd" d="M25.8743 63.3882C25.5896 63.7177 25.2843 64.0289 24.9604 64.32L24.0004 65.2326C23.69 65.543 23.3981 65.8541 23.0685 66.1645C22.7287 66.4557 22.4183 66.7405 22.0586 67.0093L22.9904 66.0966C23.3015 65.7862 23.6413 65.5245 23.9716 65.2134L24.9034 64.3008C25.2234 63.9808 25.5344 63.6698 25.8743 63.3882V63.3882ZM26.0196 65.0675C25.7278 65.8817 25.3841 66.6763 24.9904 67.4464C24.1751 69.0778 22.952 71.1162 22.4176 72.1555L26.0196 65.0675Z" fill="#CFB66C"/>
<path fill-rule="evenodd" clip-rule="evenodd" d="M26.0201 65.0682C26.0201 65.4272 25.9228 65.7383 25.8063 66.0487C25.6928 66.3593 25.5633 66.6639 25.4185 66.9613C25.2725 67.2525 25.1074 67.5635 24.9423 67.8451C24.7772 68.1267 24.5833 68.4173 24.4373 68.7091L23.4569 70.4371C23.117 71.0131 22.7868 71.5923 22.4277 72.1459C22.6703 71.5245 23.0005 70.9421 23.3116 70.3693C23.6514 69.7933 23.9618 69.2173 24.2716 68.6215C24.4228 68.3246 24.5589 68.0202 24.6793 67.7095C24.8245 67.3984 24.9698 67.1072 25.0869 66.8256C25.2322 66.5152 25.3487 66.2234 25.4946 65.9424C25.6591 65.641 25.7954 65.3498 26.0188 65.0682L26.0201 65.0682Z" fill="#CFB66C"/>
<path fill-rule="evenodd" clip-rule="evenodd" d="M29.4762 73.0291C29.4762 73.0291 28.5162 74.3008 28.6122 75.9123C28.874 75.0682 29.2042 73.7766 29.4762 73.0291ZM30.3889 74.304C30.3889 74.304 30.049 77.76 29.7674 79.4592C30.1655 77.495 30.2429 77.6602 30.3889 74.304ZM36.7479 79.6634C36.7479 79.6634 35.3111 83.8874 35.2817 85.0611C35.5927 83.8541 36.1943 81.3882 36.7479 79.6602V79.6634Z" fill="#DEC270"/>
<path fill-rule="evenodd" clip-rule="evenodd" d="M40.1074 72.768C40.1074 72.768 42.4377 76.6125 44.1855 79.8938C43.7125 78.2426 42.6245 75.2141 40.1074 72.768Z" fill="#CBAF59"/>
<path fill-rule="evenodd" clip-rule="evenodd" d="M46.3691 78.4275C47.6486 80.6891 48.8023 83.0194 49.8251 85.408C49.6312 83.7574 49.1064 80.9325 46.3691 78.4275Z" fill="#E3C677"/>
<path fill-rule="evenodd" clip-rule="evenodd" d="M64.7777 84.096C65.1655 83.8534 65.9329 82.5325 66.603 82.2029C67.2724 81.863 67.7774 81.7952 68.3796 81.1251C68.9812 80.4256 69.1476 79.9987 70.4666 79.4458C72.3118 78.649 71.0426 77.6198 71.0426 77.6198C71.2459 77.4202 71.4632 77.2354 71.6929 77.0669C72.169 76.7078 72.722 76.2707 72.674 75.5034C72.6062 74.2125 72.3636 72.3386 71.305 71.2512C72.3342 71.0374 74.3047 70.8922 75.529 70.5818C76.946 70.2221 77.5969 69.7171 77.5969 69.7171C77.5969 69.7171 76.7815 68.329 78.1018 66.9312C79.4222 65.5334 80.4999 64.6982 81.2961 63.1347C80.3834 63.0182 78.9921 62.5331 75.4414 63.8822C75.633 63.9724 75.818 64.0761 75.995 64.1926C75.995 64.1926 73.8106 64.7949 73.0145 65.465C71.6257 66.6394 71.451 67.6006 69.9463 68.3194C68.4417 69.0381 66.9268 68.8435 65.675 69.4259C64.4231 70.0083 64.2382 70.5037 63.7812 70.7174C63.8785 70.8339 63.762 71.0278 63.9463 71.193C63.8298 71.3581 63.1502 72.4646 62.4609 72.4646C62.5287 72.727 63.1111 72.921 63.1111 72.921C63.1111 72.921 62.6842 73.232 61.5969 73.3094C62.1498 73.8854 62.6746 74.5133 64.121 75.4259C64.0046 75.6685 63.5188 76.0282 63.7134 76.4845C63.9271 76.9408 64.4814 77.5622 66.6938 78.0672C65.5674 78.1152 64.2478 78.3776 62.4698 78.135C60.6932 77.9213 60.402 77.7952 59.305 78.0672C59.4215 78.1837 59.7319 78.1837 60.0039 78.4941C59.7127 78.5133 57.8874 78.2803 57.266 79.0963C56.6158 79.9405 56.3342 81.3293 56.3828 82.2611C56.043 82.4262 55.7127 82.7174 55.8778 83.3197C56.043 83.9219 56.907 84.1158 57.4606 84.4941C58.0135 84.9018 58.0622 85.047 58.587 84.9504C59.1399 84.8339 59.9553 84.281 60.4314 84.281C60.9076 84.281 61.2468 84.64 61.2468 84.64C61.2468 84.64 62.5383 84.0186 62.6644 84.135C62.7809 84.2515 62.6836 84.999 62.8097 85.1155C62.9377 85.2032 64.3924 84.3392 64.7809 84.096H64.7777Z" fill="#ECD592"/>
</svg>
